<?xml version="1.0" encoding="utf-8"?>
<!-- Generator: Adobe Illustrator 25.0.0, SVG Export Plug-In . SVG Version: 6.00 Build 0)  -->
<svg version="1.1" id="Capa_1" xmlns="http://www.w3.org/2000/svg" xmlns:xlink="http://www.w3.org/1999/xlink" x="0px" y="0px"
	 viewBox="0 0 512 512" style="enable-background:new 0 0 512 512;" xml:space="preserve">
<g>
	<path d="M497.5,32.4l-17.7-17.7c-19.4-19.3-50.8-19.3-70.2,0l-31.9,31.9l-11.8-11.8c-7.6-7.6-20-7.6-27.6,0l-10.8,10.8
		c-0.1,0.1-0.1,0.1-0.2,0.2c-67.9-36.6-150.4-35.2-216.9,3.6c-3.6,2.1-4.8,6.7-2.7,10.3c2.1,3.6,6.7,4.8,10.3,2.7
		c29.3-17.1,62.6-26.7,96.6-27.9v60.9c-77.1,3.9-138.6,67.9-138.6,145.9c0,23.3,5.6,46,16,66.5l-52.7,30.4
		C23.7,309.1,15,276,15,241.4C15,179.6,42.3,121.5,90,82c3.2-2.6,3.6-7.4,1-10.6c-2.6-3.2-7.4-3.6-10.6-1
		C29.3,112.8,0,175.1,0,241.4c0,98,64.5,185,159,212.9c2.9,32.2,30,57.5,62.9,57.5c32.9,0,60-25.3,62.9-57.5
		c26.6-7.9,51.3-20.5,73.3-37.7c3.3-2.5,3.9-7.3,1.3-10.5s-7.3-3.9-10.5-1.3c-19.5,15.2-41.3,26.6-64.7,34
		c-3.2-19.8-14.7-39.8-27-55.6c28.9-7.2,55.2-23.2,74.9-46c4.5-5.2,8.6-10.6,12.3-16.3l52.8,30.5c-6.8,10.8-14.6,21.1-23.5,30.6
		c-2.8,3-2.6,7.8,0.4,10.6c3,2.8,7.8,2.6,10.6-0.4c52.7-56.9,71.4-136.7,50.9-210.3l3.1,3.1c3.8,3.8,8.8,5.7,13.8,5.7
		c5,0,10-1.9,13.8-5.7l10.8-10.8c7.6-7.6,7.6-20,0-27.6l-11.8-11.8l31.9-31.9C516.8,83.3,516.8,51.8,497.5,32.4L497.5,32.4z
		 M423.1,169.1l-25,25h-160l105-105L423.1,169.1z M312.3,280c-13.2,13.2-33.8,15.9-49.9,6.5c-2.8-1.6-6.3-1.3-8.8,0.9
		c-8,7.1-20.2,6.7-27.8-0.9c-7.6-7.6-8-19.8-0.9-27.8c2.2-2.4,2.5-6,0.9-8.8c-7.5-12.8-7.3-28.4-0.4-40.8h157.8L312.3,280z
		 M295.8,115.3c-20.2-11.8-42.9-18.6-66.3-19.8V34.6c32.4,1.2,64,9.9,92.2,25.5c0.1,4.8,2,9.7,5.7,13.3l5.1,5.2L295.8,115.3z
		 M46.6,351.3l52.7-30.4c20.1,31,51.4,53.4,87.2,62.3c-12.2,15.8-23.7,35.8-27,55.6C111.7,423.7,72.2,392,46.6,351.3z M270.2,448.5
		c0,26.6-21.6,48.2-48.2,48.2s-48.2-21.6-48.2-48.2c0-30.7,36.2-74.5,48.2-79C234.1,374.1,270.2,417.9,270.2,448.5L270.2,448.5z
		 M321,327.3c-19.4,22.4-45.8,37.5-74.7,42.9c-5.7-6-16-15.8-24.3-15.8c-3.1,0-8.5,1.1-18.7,10.3c-1.8,1.7-3.7,3.5-5.6,5.5
		c-61.7-11.6-106.8-65.7-106.8-128.8c0-99.4,107-162.6,193.9-115.1l-63.1,63.1C205,206,200.4,231.5,210.5,253
		c-8.9,13.7-7.2,32.2,4.7,44.1c11.9,11.9,30.4,13.6,44.1,4.7c21.2,9.9,46.8,5.6,63.6-11.2l28.5-28.5
		C347.6,286.1,337.1,308.8,321,327.3L321,327.3z M404.9,338.3l-52.8-30.5c9.8-19.2,15.3-40.5,15.9-62.4l54.7-54.7
		c4.1,16.5,6.2,33.4,6.2,50.6C428.9,275.6,420.6,308.7,404.9,338.3L404.9,338.3z M466.8,163.4l-10.8,10.8c-1.8,1.8-4.7,1.8-6.4,0
		c-15.6-15.6-100-100-111.5-111.5c-1.8-1.8-1.8-4.7,0-6.4l10.8-10.8c1.8-1.8,4.7-1.8,6.4,0C382.4,72.6,444,134.2,466.8,157
		C468.5,158.8,468.5,161.7,466.8,163.4z M486.9,92L455,124l-66.7-66.7l31.9-31.9c13.5-13.5,35.5-13.5,49,0L486.9,43
		C500.4,56.5,500.4,78.5,486.9,92z"/>
</g>
<polygon points="377.6,52.9 427.6,11.9 455.1,9.1 502,48.4 499.3,89.1 468.1,124 455.6,128.1 "/>
<polygon points="214.8,197.7 398,202.2 320.2,281.1 293.5,297.1 256,292.5 238.2,301.4 214.8,288.6 214.8,270.4 219.8,256 
	214.8,219.3 "/>
<polygon points="236.1,370.2 273.6,433.1 270.2,475.3 239.2,501.7 198,496.7 170.4,463.6 173.7,418.1 201.1,376.3 225.1,362.8 
	234.3,373.9 "/>
<path d="M219.8,29l2.2,74.1l-44.2,12.1l-40.2,16.8l-42.4,52.2l-9.9,65.2l11.3,61.9l-58.6,33.2L9.8,288.1v-94l43.1-84.2l33.2-35
	L78,72.5l2.4-2c0,0,21.9-17.3,35.5-24.1S219.8,29,219.8,29z"/>
</svg>
