<svg width="175" height="203" viewBox="0 0 175 203" fill="none" xmlns="http://www.w3.org/2000/svg">
<path d="M21 133H154V184.5C154 194.717 145.717 203 135.5 203H39.5C29.2827 203 21 194.717 21 184.5V133Z" fill="#00A06F"/>
<path d="M153 70L20 70L20 18.5C20 8.28272 28.2827 -1.09031e-05 38.5 -1.00099e-05L134.5 -1.61732e-06C144.717 -7.241e-07 153 8.28273 153 18.5L153 70Z" fill="#00A06F"/>
<rect y="14" width="175" height="175" rx="43" fill="#005138"/>
<path d="M55.8012 96.1646C53.19 96.1646 50.919 95.6928 48.988 94.7493C47.057 93.7838 45.5759 92.4233 44.5446 90.6679C43.5132 88.9125 42.9976 86.8718 42.9976 84.5458C42.9976 81.3202 43.601 78.4567 44.8079 75.9552C46.0367 73.4537 47.6934 71.5227 49.7779 70.1623C51.8625 68.7799 54.1775 68.0887 56.7228 68.0887C59.0927 68.0887 60.892 68.7031 62.1208 69.9319C63.3496 71.1387 63.964 72.7406 63.964 74.7374C63.964 76.0759 63.7226 77.1511 63.2399 77.963C62.7791 78.7749 62.1098 79.1808 61.2321 79.1808C60.6177 79.1808 60.135 79.0382 59.7839 78.7529C59.4328 78.4677 59.2572 78.0507 59.2572 77.5022C59.2572 77.3047 59.3011 76.9426 59.3889 76.416C59.5206 75.7577 59.5864 75.2311 59.5864 74.8361C59.5864 72.8393 58.5222 71.8409 56.3937 71.8409C54.9455 71.8409 53.5631 72.3127 52.2465 73.2562C50.9299 74.1998 49.8657 75.5931 49.0538 77.4363C48.2419 79.2576 47.836 81.4299 47.836 83.9534C47.836 86.5865 48.5711 88.6272 50.0412 90.0754C51.5114 91.5017 53.6838 92.2149 56.5583 92.2149C57.9846 92.2149 59.4218 92.0393 60.87 91.6882C62.3402 91.3152 63.964 90.7557 65.7414 90.0096C66.0705 89.8779 66.3448 89.8121 66.5642 89.8121C66.9153 89.8121 67.1786 89.9438 67.3542 90.2071C67.5297 90.4704 67.6175 90.8105 67.6175 91.2274C67.6175 92.5659 66.8934 93.5534 65.4451 94.1897C63.8872 94.8699 62.2634 95.3746 60.5738 95.7038C58.9062 96.011 57.3153 96.1646 55.8012 96.1646ZM67.3722 96.1646C66.5383 96.1646 65.9459 95.7257 65.5948 94.848C65.2656 93.9703 65.1011 92.5659 65.1011 90.635C65.1011 87.7824 65.507 85.0725 66.3189 82.5051C66.5164 81.8688 66.8346 81.408 67.2734 81.1227C67.7342 80.8155 68.3706 80.6619 69.1824 80.6619C69.6213 80.6619 69.9285 80.7168 70.104 80.8265C70.2796 80.9362 70.3674 81.1447 70.3674 81.4519C70.3674 81.803 70.2028 82.5929 69.8736 83.8217C69.6542 84.6994 69.4787 85.4674 69.347 86.1257C69.2154 86.784 69.1056 87.5959 69.0179 88.5614C69.742 86.6743 70.5539 85.1383 71.4535 83.9534C72.3532 82.7685 73.2309 81.9237 74.0867 81.419C74.9644 80.9143 75.7653 80.6619 76.4894 80.6619C77.9157 80.6619 78.6288 81.3751 78.6288 82.8014C78.6288 83.0866 78.5301 83.7778 78.3326 84.875C78.1571 85.7527 78.0693 86.3013 78.0693 86.5207C78.0693 87.2887 78.3436 87.6727 78.8922 87.6727C79.5066 87.6727 80.2965 87.1899 81.262 86.2245C81.5472 85.9392 81.8435 85.7966 82.1507 85.7966C82.4359 85.7966 82.6554 85.9282 82.809 86.1915C82.9845 86.4329 83.0723 86.7621 83.0723 87.179C83.0723 87.9909 82.8528 88.6272 82.414 89.088C81.7996 89.7243 81.0755 90.2729 80.2416 90.7337C79.4298 91.1726 78.563 91.392 77.6414 91.392C76.4784 91.392 75.5898 91.0958 74.9754 90.5033C74.3829 89.9109 74.0867 89.1099 74.0867 88.1006C74.0867 87.7714 74.1196 87.4423 74.1854 87.1131C74.2293 86.6743 74.2512 86.3781 74.2512 86.2245C74.2512 85.8734 74.1306 85.6978 73.8892 85.6978C73.56 85.6978 73.1212 86.0709 72.5726 86.8169C72.046 87.541 71.5194 88.5065 70.9927 89.7134C70.4661 90.9202 70.0382 92.1929 69.7091 93.5314C69.4677 94.5627 69.1824 95.2649 68.8533 95.6379C68.5461 95.989 68.0524 96.1646 67.3722 96.1646ZM94.6936 88.6601C94.9788 88.6601 95.1983 88.7918 95.3519 89.0551C95.5274 89.3184 95.6152 89.6805 95.6152 90.1413C95.6152 91.019 95.4067 91.6992 94.9898 92.1819C94.1779 93.1694 93.0259 94.08 91.5338 94.9138C90.0636 95.7477 88.4838 96.1646 86.7942 96.1646C84.4902 96.1646 82.7018 95.5392 81.4291 94.2885C80.1564 93.0377 79.5201 91.3262 79.5201 89.1538C79.5201 87.6398 79.8383 86.2354 80.4746 84.9408C81.111 83.6242 81.9887 82.5819 83.1078 81.8139C84.2488 81.0459 85.5324 80.6619 86.9587 80.6619C88.2314 80.6619 89.2518 81.0459 90.0198 81.8139C90.7878 82.56 91.1718 83.5803 91.1718 84.875C91.1718 86.389 90.6232 87.6946 89.526 88.7918C88.4508 89.867 86.6186 90.7227 84.0294 91.3591C84.5779 92.3685 85.6202 92.8731 87.1562 92.8731C88.1436 92.8731 89.2627 92.533 90.5135 91.8528C91.7862 91.1506 92.8833 90.24 93.8049 89.1209C94.0682 88.8137 94.3644 88.6601 94.6936 88.6601ZM86.3992 83.8875C85.5873 83.8875 84.8961 84.3593 84.3256 85.3029C83.777 86.2464 83.5027 87.3874 83.5027 88.7259V88.7918C84.7974 88.4846 85.8177 88.0238 86.5638 87.4094C87.3098 86.795 87.6828 86.0818 87.6828 85.2699C87.6828 84.853 87.5622 84.5239 87.3208 84.2825C87.1014 84.0192 86.7942 83.8875 86.3992 83.8875ZM96.823 96.1646C95.4625 96.1646 94.3764 95.6709 93.5645 94.6834C92.7526 93.696 92.3466 92.4014 92.3466 90.7995C92.3466 89.0441 92.7526 87.3874 93.5645 85.8295C94.3764 84.2496 95.4516 82.9879 96.7901 82.0443C98.1505 81.0789 99.5878 80.5961 101.102 80.5961C101.585 80.5961 101.903 80.6949 102.056 80.8923C102.232 81.0679 102.375 81.397 102.484 81.8798C102.945 81.792 103.428 81.7481 103.932 81.7481C105.008 81.7481 105.545 82.1321 105.545 82.9001C105.545 83.3609 105.381 84.4581 105.052 86.1915C104.547 88.715 104.295 90.4704 104.295 91.4578C104.295 91.787 104.371 92.0503 104.525 92.2478C104.7 92.4453 104.92 92.544 105.183 92.544C105.6 92.544 106.105 92.2807 106.697 91.7541C107.29 91.2055 108.091 90.3278 109.1 89.1209C109.363 88.8137 109.66 88.6601 109.989 88.6601C110.274 88.6601 110.493 88.7918 110.647 89.0551C110.823 89.3184 110.91 89.6805 110.91 90.1413C110.91 91.019 110.702 91.6992 110.285 92.1819C109.385 93.301 108.431 94.2446 107.421 95.0126C106.412 95.7806 105.436 96.1646 104.492 96.1646C103.768 96.1646 103.099 95.9232 102.484 95.4405C101.892 94.9358 101.442 94.2555 101.135 93.3998C99.9937 95.243 98.5565 96.1646 96.823 96.1646ZM98.0079 92.8402C98.4906 92.8402 98.9514 92.555 99.3903 91.9845C99.8292 91.4139 100.147 90.6569 100.345 89.7134L101.563 83.6571C100.641 83.6791 99.7853 84.0302 98.9953 84.7104C98.2273 85.3687 97.6129 86.2464 97.1521 87.3435C96.6913 88.4407 96.4609 89.6037 96.4609 90.8325C96.4609 91.5127 96.5926 92.0174 96.8559 92.3465C97.1412 92.6757 97.5252 92.8402 98.0079 92.8402ZM122.915 88.6601C123.2 88.6601 123.42 88.7918 123.573 89.0551C123.749 89.3184 123.837 89.6805 123.837 90.1413C123.837 91.019 123.628 91.6992 123.211 92.1819C122.268 93.3449 121.236 94.2994 120.117 95.0455C118.998 95.7915 117.715 96.1646 116.266 96.1646C111.79 96.1646 109.552 93.0158 109.552 86.7182C109.552 85.7527 109.585 84.7762 109.651 83.7888H108.367C107.709 83.7888 107.259 83.6681 107.017 83.4267C106.798 83.1854 106.688 82.8014 106.688 82.2747C106.688 81.0459 107.182 80.4315 108.169 80.4315H110.046C110.419 78.0178 110.989 75.8126 111.757 73.8158C112.525 71.819 113.447 70.2281 114.522 69.0432C115.619 67.8583 116.793 67.2658 118.044 67.2658C118.965 67.2658 119.689 67.6718 120.216 68.4837C120.743 69.2955 121.006 70.3159 121.006 71.5447C121.006 74.9458 119.58 77.9081 116.727 80.4315H120.414C120.765 80.4315 121.017 80.5083 121.171 80.6619C121.324 80.8155 121.401 81.1008 121.401 81.5177C121.401 83.0318 120.161 83.7888 117.682 83.7888H113.666C113.622 84.8859 113.6 85.7417 113.6 86.3561C113.6 88.6382 113.864 90.24 114.39 91.1616C114.939 92.0832 115.795 92.544 116.958 92.544C117.901 92.544 118.735 92.2587 119.459 91.6882C120.183 91.1177 121.039 90.2619 122.026 89.1209C122.29 88.8137 122.586 88.6601 122.915 88.6601ZM117.155 70.4256C116.826 70.4256 116.453 70.8425 116.036 71.6763C115.641 72.4882 115.257 73.6293 114.884 75.0994C114.533 76.5477 114.237 78.1605 113.995 79.9378C115.29 78.8187 116.255 77.568 116.892 76.1856C117.55 74.7813 117.879 73.5086 117.879 72.3675C117.879 71.0729 117.638 70.4256 117.155 70.4256ZM132.94 89.6475C133.225 89.6475 133.445 89.7792 133.598 90.0425C133.774 90.3058 133.862 90.6679 133.862 91.1287C133.862 91.9186 133.675 92.5989 133.302 93.1694C132.688 94.1129 131.876 94.848 130.866 95.3746C129.879 95.9013 128.694 96.1646 127.312 96.1646C125.205 96.1646 123.57 95.5392 122.407 94.2885C121.244 93.0158 120.663 91.3042 120.663 89.1538C120.663 87.6398 120.981 86.2354 121.617 84.9408C122.254 83.6242 123.132 82.5819 124.251 81.8139C125.392 81.0459 126.675 80.6619 128.102 80.6619C129.374 80.6619 130.395 81.0459 131.163 81.8139C131.931 82.56 132.315 83.5803 132.315 84.875C132.315 86.389 131.766 87.6946 130.669 88.7918C129.594 89.867 127.751 90.7227 125.139 91.3591C125.666 92.3685 126.555 92.8731 127.805 92.8731C128.705 92.8731 129.44 92.6647 130.011 92.2478C130.603 91.8309 131.283 91.1287 132.051 90.1413C132.315 89.8121 132.611 89.6475 132.94 89.6475ZM127.542 83.8875C126.73 83.8875 126.039 84.3593 125.468 85.3029C124.92 86.2464 124.646 87.3874 124.646 88.7259V88.7918C125.94 88.4846 126.961 88.0238 127.707 87.4094C128.453 86.795 128.826 86.0818 128.826 85.2699C128.826 84.853 128.705 84.5239 128.464 84.2825C128.244 84.0192 127.937 83.8875 127.542 83.8875ZM66.1956 119.383C66.1956 121.248 65.7129 122.96 64.7474 124.518C63.7819 126.076 62.3775 127.348 60.5343 128.336C58.6911 129.323 56.4969 129.905 53.9515 130.08L52.5362 138.013C51.9876 141.063 50.4955 142.588 48.0598 142.588C46.7213 142.588 45.4815 142.193 44.3405 141.403C43.2214 140.613 42.3218 139.406 41.6415 137.782C40.9613 136.158 40.6212 134.162 40.6212 131.792C40.6212 127.337 41.3343 123.563 42.7606 120.469C44.2089 117.353 46.1398 115.027 48.5535 113.491C50.9892 111.933 53.6662 111.155 56.5846 111.155C58.6473 111.155 60.3917 111.517 61.818 112.241C63.2662 112.965 64.3524 113.952 65.0765 115.203C65.8226 116.432 66.1956 117.825 66.1956 119.383ZM54.5439 126.69C59.0422 126.12 61.2914 123.783 61.2914 119.679C61.2914 118.231 60.8086 117.057 59.8431 116.157C58.8996 115.236 57.4294 114.775 55.4326 114.775C53.1725 114.775 51.1977 115.488 49.5081 116.915C47.8404 118.341 46.5458 120.327 45.6242 122.872C44.7245 125.395 44.2747 128.281 44.2747 131.528C44.2747 132.889 44.4063 134.096 44.6697 135.149C44.9549 136.202 45.306 137.025 45.7229 137.618C46.1618 138.188 46.5787 138.473 46.9737 138.473C47.5222 138.473 47.9391 137.716 48.2244 136.202L49.3106 129.981C48.4548 129.85 48.0818 129.795 48.1915 129.817C47.5332 129.707 47.1053 129.51 46.9078 129.224C46.7103 128.917 46.6116 128.533 46.6116 128.072C46.6116 127.59 46.7433 127.206 47.0066 126.92C47.2918 126.635 47.6758 126.493 48.1586 126.493C48.378 126.493 48.5426 126.504 48.6523 126.525C49.1789 126.613 49.5849 126.668 49.8701 126.69C50.1554 124.979 50.5613 122.685 51.0879 119.811C51.2196 119.065 51.5158 118.538 51.9766 118.231C52.4594 117.902 53.0189 117.737 53.6553 117.737C54.3794 117.737 54.895 117.88 55.2022 118.165C55.5314 118.429 55.6959 118.856 55.6959 119.449C55.6959 119.8 55.674 120.085 55.6301 120.305L54.5439 126.69ZM71.096 139.165C69.8013 139.165 68.6932 138.846 67.7716 138.21C66.872 137.552 66.1917 136.696 65.7309 135.643C65.2701 134.589 65.0397 133.459 65.0397 132.253C65.0397 130.585 65.3469 129.104 65.9613 127.809C66.5977 126.493 67.4535 125.472 68.5287 124.748C69.6039 124.002 70.8107 123.629 72.1492 123.629C73.4439 123.629 74.552 123.958 75.4736 124.616C76.3952 125.253 77.0864 126.098 77.5472 127.151C78.008 128.204 78.2384 129.334 78.2384 130.541C78.2384 132.209 77.9202 133.701 77.2839 135.017C76.6475 136.312 75.7808 137.332 74.6836 138.078C73.6084 138.803 72.4125 139.165 71.096 139.165ZM71.458 135.61C72.2041 135.61 72.8295 135.204 73.3341 134.392C73.8608 133.58 74.1241 132.395 74.1241 130.837C74.1241 129.63 73.9047 128.72 73.4658 128.105C73.0269 127.491 72.5003 127.184 71.8859 127.184C71.096 127.184 70.4377 127.59 69.9111 128.402C69.4064 129.192 69.154 130.376 69.154 131.956C69.154 133.207 69.3735 134.129 69.8123 134.721C70.2512 135.314 70.7997 135.61 71.458 135.61ZM86.4091 139.889C85.2681 139.889 84.3903 139.625 83.7759 139.099C83.1835 138.572 82.8873 137.98 82.8873 137.321C82.8873 136.751 83.0957 136.257 83.5126 135.84C83.9295 135.423 84.5439 135.215 85.3558 135.215C85.6411 135.215 85.9702 135.248 86.3433 135.314C86.7382 135.357 87.0345 135.39 87.2319 135.412C87.21 134.842 87.0783 134.304 86.837 133.8C86.6175 133.295 86.3323 132.812 85.9812 132.351C85.6301 131.869 85.301 131.452 84.9938 131.101C84.3135 132.395 83.6333 133.47 82.9531 134.326C82.2948 135.182 81.5707 135.994 80.7807 136.762C80.3858 137.157 79.9689 137.354 79.53 137.354C79.1789 137.354 78.8937 137.234 78.6742 136.992C78.4548 136.729 78.3451 136.411 78.3451 136.038C78.3451 135.599 78.4987 135.193 78.8059 134.82L79.2338 134.293C80.4406 132.801 81.3513 131.572 81.9657 130.607C82.3387 129.971 82.7775 129.126 83.2822 128.072C83.7869 126.997 84.2806 125.889 84.7634 124.748C85.1803 123.783 86.047 123.3 87.3636 123.3C87.978 123.3 88.4059 123.355 88.6473 123.464C88.8886 123.574 89.0093 123.75 89.0093 123.991C89.0093 124.123 88.9654 124.331 88.8777 124.616C88.7899 124.902 88.6692 125.187 88.5156 125.472C88.1206 126.262 87.9231 126.931 87.9231 127.48C87.9231 127.809 88.0329 128.171 88.2523 128.566C88.4937 128.961 88.8557 129.455 89.3385 130.047C90.0406 130.969 90.5673 131.759 90.9183 132.417C91.2914 133.053 91.4779 133.756 91.4779 134.524C91.4779 134.743 91.4559 135.05 91.4121 135.445C92.4873 135.028 93.749 133.92 95.1972 132.121C95.4605 131.814 95.7567 131.66 96.0859 131.66C96.3711 131.66 96.5906 131.792 96.7442 132.055C96.9197 132.318 97.0075 132.68 97.0075 133.141C97.0075 133.975 96.799 134.655 96.3821 135.182C95.285 136.542 94.2317 137.475 93.2223 137.98C92.2349 138.462 91.0061 138.726 89.5359 138.77C88.6582 139.516 87.6159 139.889 86.4091 139.889ZM109.013 131.66C109.298 131.66 109.518 131.792 109.672 132.055C109.847 132.318 109.935 132.68 109.935 133.141C109.935 134.019 109.726 134.699 109.309 135.182C108.366 136.345 107.335 137.299 106.216 138.045C105.096 138.792 103.813 139.165 102.365 139.165C97.8882 139.165 95.65 136.016 95.65 129.718C95.65 128.753 95.6829 127.776 95.7488 126.789H94.4651C93.8068 126.789 93.357 126.668 93.1156 126.427C92.8962 126.185 92.7865 125.801 92.7865 125.275C92.7865 124.046 93.2802 123.432 94.2676 123.432H96.1437C96.5168 121.018 97.0873 118.813 97.8553 116.816C98.6233 114.819 99.5449 113.228 100.62 112.043C101.717 110.858 102.891 110.266 104.142 110.266C105.064 110.266 105.788 110.672 106.314 111.484C106.841 112.296 107.104 113.316 107.104 114.545C107.104 117.946 105.678 120.908 102.825 123.432H106.512C106.863 123.432 107.115 123.508 107.269 123.662C107.422 123.816 107.499 124.101 107.499 124.518C107.499 126.032 106.259 126.789 103.78 126.789H99.7643C99.7204 127.886 99.6985 128.742 99.6985 129.356C99.6985 131.638 99.9618 133.24 100.488 134.162C101.037 135.083 101.893 135.544 103.056 135.544C103.999 135.544 104.833 135.259 105.557 134.688C106.281 134.118 107.137 133.262 108.125 132.121C108.388 131.814 108.684 131.66 109.013 131.66ZM103.253 113.426C102.924 113.426 102.551 113.843 102.134 114.676C101.739 115.488 101.355 116.629 100.982 118.099C100.631 119.548 100.335 121.16 100.093 122.938C101.388 121.819 102.354 120.568 102.99 119.186C103.648 117.781 103.977 116.509 103.977 115.368C103.977 114.073 103.736 113.426 103.253 113.426ZM121.935 131.66C122.22 131.66 122.439 131.792 122.593 132.055C122.768 132.318 122.856 132.68 122.856 133.141C122.856 134.019 122.648 134.699 122.231 135.182C121.419 136.169 120.267 137.08 118.775 137.914C117.305 138.748 115.725 139.165 114.035 139.165C111.731 139.165 109.943 138.539 108.67 137.288C107.398 136.038 106.761 134.326 106.761 132.154C106.761 130.64 107.079 129.235 107.716 127.941C108.352 126.624 109.23 125.582 110.349 124.814C111.49 124.046 112.774 123.662 114.2 123.662C115.472 123.662 116.493 124.046 117.261 124.814C118.029 125.56 118.413 126.58 118.413 127.875C118.413 129.389 117.864 130.695 116.767 131.792C115.692 132.867 113.86 133.723 111.27 134.359C111.819 135.368 112.861 135.873 114.397 135.873C115.385 135.873 116.504 135.533 117.755 134.853C119.027 134.151 120.124 133.24 121.046 132.121C121.309 131.814 121.606 131.66 121.935 131.66ZM113.64 126.888C112.828 126.888 112.137 127.359 111.567 128.303C111.018 129.246 110.744 130.387 110.744 131.726V131.792C112.038 131.485 113.059 131.024 113.805 130.409C114.551 129.795 114.924 129.082 114.924 128.27C114.924 127.853 114.803 127.524 114.562 127.283C114.342 127.019 114.035 126.888 113.64 126.888ZM133.474 128.171C133.956 128.171 134.362 128.347 134.692 128.698C135.043 129.027 135.218 129.444 135.218 129.949C135.218 130.234 135.152 130.541 135.021 130.87C134.67 131.682 134.176 132.362 133.54 132.911C132.903 133.459 132.201 133.734 131.433 133.734C130.819 133.734 130.292 133.514 129.853 133.075C129.436 132.637 129.228 132.044 129.228 131.298C129.228 130.881 129.25 130.431 129.294 129.949C129.337 129.597 129.359 129.356 129.359 129.224C129.359 129.049 129.316 128.917 129.228 128.829C129.162 128.742 129.074 128.698 128.964 128.698C128.657 128.698 128.24 129.071 127.714 129.817C127.187 130.541 126.66 131.507 126.134 132.713C125.607 133.92 125.179 135.193 124.85 136.531C124.609 137.585 124.334 138.287 124.027 138.638C123.72 138.989 123.215 139.165 122.513 139.165C121.679 139.165 121.087 138.726 120.736 137.848C120.407 136.97 120.242 135.566 120.242 133.635C120.242 130.782 120.648 128.072 121.46 125.505C121.657 124.869 121.976 124.408 122.414 124.123C122.875 123.816 123.512 123.662 124.324 123.662C124.762 123.662 125.07 123.717 125.245 123.827C125.421 123.936 125.508 124.145 125.508 124.452C125.508 124.803 125.344 125.593 125.015 126.822C124.795 127.699 124.62 128.467 124.488 129.126C124.356 129.784 124.247 130.596 124.159 131.561C124.883 129.674 125.695 128.138 126.595 126.953C127.494 125.768 128.372 124.924 129.228 124.419C130.084 123.914 130.862 123.662 131.565 123.662C132.201 123.662 132.684 123.848 133.013 124.221C133.364 124.573 133.54 125.099 133.54 125.801C133.54 126.218 133.419 127.008 133.177 128.171H133.474Z" fill="white"/>
</svg>
