<svg width="175" height="203" viewBox="0 0 175 203" fill="none" xmlns="http://www.w3.org/2000/svg">
<path d="M21 133H154V184.5C154 194.717 145.717 203 135.5 203H39.5C29.2827 203 21 194.717 21 184.5V133Z" fill="#00A06F"/>
<path d="M153 70L20 70L20 18.5C20 8.28272 28.2827 -1.09031e-05 38.5 -1.00099e-05L134.5 -1.61732e-06C144.717 -7.241e-07 153 8.28273 153 18.5L153 70Z" fill="#00A06F"/>
<rect y="14" width="175" height="175" rx="43" fill="#005138"/>
<path d="M44.5072 116.165C43.2346 116.165 41.7973 116.055 40.1955 115.835C39.3178 115.726 38.7143 115.495 38.3852 115.144C38.056 114.793 37.9134 114.223 37.9573 113.433C38.1109 111.26 38.473 108.583 39.0435 105.402C39.614 102.198 40.3052 99.115 41.1171 96.1527C41.2707 95.6041 41.5779 95.2201 42.0387 95.0007C42.4995 94.7813 43.1029 94.6715 43.849 94.6715C45.1875 94.6715 45.8567 95.0446 45.8567 95.7906C45.8567 96.0978 45.7909 96.4489 45.6592 96.8439C45.0887 98.5993 44.5182 100.958 43.9477 103.92C43.3772 106.861 42.9712 109.669 42.7299 112.347C43.3882 112.412 44.1342 112.445 44.968 112.445C48.808 112.445 51.6716 111.282 53.5587 108.956C55.4677 106.63 56.4222 103.525 56.4222 99.6416C56.4222 97.0304 55.6762 95.0117 54.184 93.5854C52.6919 92.1591 50.5854 91.4459 47.8645 91.4459C46.1091 91.4459 44.3646 91.7202 42.6311 92.2688C40.9196 92.8174 39.3726 93.5415 37.9902 94.4411C37.705 94.6386 37.3978 94.7374 37.0686 94.7374C36.6956 94.7374 36.3994 94.5838 36.1799 94.2766C35.9605 93.9474 35.8508 93.5525 35.8508 93.0917C35.8508 92.565 35.9386 92.1371 36.1141 91.808C36.2896 91.4569 36.5859 91.1387 37.0028 90.8535C38.5168 89.8222 40.2942 89.0432 42.3349 88.5166C44.3756 87.968 46.3395 87.6937 48.2266 87.6937C50.9036 87.6937 53.2186 88.1655 55.1715 89.109C57.1244 90.0306 58.6275 91.3911 59.6807 93.1904C60.734 94.9897 61.2606 97.1621 61.2606 99.7074C61.2606 103.021 60.6023 105.917 59.2858 108.397C57.9692 110.854 56.0492 112.763 53.5258 114.124C51.0023 115.484 47.9962 116.165 44.5072 116.165ZM78.1436 108.66C78.4288 108.66 78.6483 108.792 78.8019 109.055C78.9774 109.318 79.0652 109.68 79.0652 110.141C79.0652 111.019 78.8567 111.699 78.4398 112.182C77.6279 113.169 76.4759 114.08 74.9838 114.914C73.5136 115.748 71.9338 116.165 70.2442 116.165C67.9402 116.165 66.1518 115.539 64.8791 114.288C63.6064 113.038 62.9701 111.326 62.9701 109.154C62.9701 107.64 63.2883 106.235 63.9246 104.941C64.561 103.624 65.4387 102.582 66.5578 101.814C67.6988 101.046 68.9824 100.662 70.4087 100.662C71.6814 100.662 72.7018 101.046 73.4698 101.814C74.2378 102.56 74.6218 103.58 74.6218 104.875C74.6218 106.389 74.0732 107.695 72.976 108.792C71.9008 109.867 70.0686 110.723 67.4794 111.359C68.0279 112.368 69.0702 112.873 70.6062 112.873C71.5936 112.873 72.7127 112.533 73.9635 111.853C75.2362 111.151 76.3333 110.24 77.2549 109.121C77.5182 108.814 77.8144 108.66 78.1436 108.66ZM69.8492 103.888C69.0373 103.888 68.3461 104.359 67.7756 105.303C67.227 106.246 66.9527 107.387 66.9527 108.726V108.792C68.2474 108.485 69.2677 108.024 70.0138 107.409C70.7598 106.795 71.1328 106.082 71.1328 105.27C71.1328 104.853 71.0122 104.524 70.7708 104.283C70.5514 104.019 70.2442 103.888 69.8492 103.888ZM82.5073 116.889C81.3663 116.889 80.4886 116.625 79.8742 116.099C79.2817 115.572 78.9855 114.98 78.9855 114.321C78.9855 113.751 79.1939 113.257 79.6108 112.84C80.0278 112.423 80.6422 112.215 81.454 112.215C81.7393 112.215 82.0684 112.248 82.4415 112.314C82.8364 112.357 83.1327 112.39 83.3302 112.412C83.3082 111.842 83.1766 111.304 82.9352 110.8C82.7158 110.295 82.4305 109.812 82.0794 109.351C81.7283 108.869 81.3992 108.452 81.092 108.101C80.4118 109.395 79.7315 110.47 79.0513 111.326C78.393 112.182 77.6689 112.994 76.879 113.762C76.484 114.157 76.0671 114.354 75.6282 114.354C75.2771 114.354 74.9919 114.234 74.7724 113.992C74.553 113.729 74.4433 113.411 74.4433 113.038C74.4433 112.599 74.5969 112.193 74.9041 111.82L75.332 111.293C76.5388 109.801 77.4495 108.572 78.0639 107.607C78.4369 106.971 78.8758 106.126 79.3804 105.072C79.8851 103.997 80.3788 102.889 80.8616 101.748C81.2785 100.783 82.1452 100.3 83.4618 100.3C84.0762 100.3 84.5041 100.355 84.7455 100.464C84.9868 100.574 85.1075 100.75 85.1075 100.991C85.1075 101.123 85.0636 101.331 84.9759 101.616C84.8881 101.902 84.7674 102.187 84.6138 102.472C84.2188 103.262 84.0214 103.931 84.0214 104.48C84.0214 104.809 84.1311 105.171 84.3505 105.566C84.5919 105.961 84.9539 106.455 85.4367 107.047C86.1388 107.969 86.6655 108.759 87.0166 109.417C87.3896 110.053 87.5761 110.756 87.5761 111.524C87.5761 111.743 87.5542 112.05 87.5103 112.445C88.5855 112.028 89.8472 110.92 91.2954 109.121C91.5587 108.814 91.855 108.66 92.1841 108.66C92.4694 108.66 92.6888 108.792 92.8424 109.055C93.0179 109.318 93.1057 109.68 93.1057 110.141C93.1057 110.975 92.8972 111.655 92.4803 112.182C91.3832 113.542 90.3299 114.475 89.3206 114.98C88.3331 115.462 87.1043 115.726 85.6342 115.77C84.7564 116.516 83.7142 116.889 82.5073 116.889ZM94.7434 98.4896C93.8218 98.4896 93.1306 98.2811 92.6698 97.8642C92.209 97.4254 91.9786 96.8219 91.9786 96.0539C91.9786 95.2859 92.2749 94.6496 92.8673 94.1449C93.4817 93.6183 94.2388 93.355 95.1384 93.355C95.9503 93.355 96.6086 93.5525 97.1133 93.9474C97.618 94.3424 97.8703 94.9019 97.8703 95.6261C97.8703 96.5038 97.585 97.2059 97.0145 97.7326C96.444 98.2373 95.687 98.4896 94.7434 98.4896ZM94.4801 116.165C93.0538 116.165 92.0116 115.66 91.3533 114.651C90.7169 113.641 90.3988 112.303 90.3988 110.635C90.3988 109.648 90.5194 108.386 90.7608 106.85C91.0241 105.292 91.3533 103.844 91.7482 102.505C91.9457 101.803 92.209 101.32 92.5382 101.057C92.8673 100.794 93.394 100.662 94.1181 100.662C95.2372 100.662 95.7967 101.035 95.7967 101.781C95.7967 102.33 95.5882 103.602 95.1713 105.599C94.6447 108.013 94.3814 109.648 94.3814 110.503C94.3814 111.162 94.4692 111.666 94.6447 112.017C94.8202 112.368 95.1165 112.544 95.5334 112.544C95.9284 112.544 96.4221 112.27 97.0145 111.721C97.607 111.173 98.3969 110.306 99.3844 109.121C99.6477 108.814 99.9439 108.66 100.273 108.66C100.558 108.66 100.778 108.792 100.931 109.055C101.107 109.318 101.195 109.68 101.195 110.141C101.195 111.019 100.986 111.699 100.569 112.182C98.3969 114.837 96.3672 116.165 94.4801 116.165ZM115.384 108.726C115.669 108.726 115.888 108.869 116.042 109.154C116.218 109.417 116.305 109.757 116.305 110.174C116.305 110.679 116.229 111.074 116.075 111.359C115.921 111.644 115.68 111.897 115.351 112.116C113.464 113.389 112.081 114.332 111.204 114.947L109.097 116.362C108.263 120.904 107.166 124.47 105.806 127.059C104.467 129.67 102.756 130.976 100.671 130.976C99.552 130.976 98.6414 130.625 97.9392 129.923C97.237 129.243 96.886 128.343 96.886 127.224C96.886 125.666 97.5004 123.987 98.7292 122.188C99.958 120.411 102.262 118.216 105.641 115.605L105.839 114.321C105.466 114.914 104.972 115.375 104.357 115.704C103.765 116.011 103.173 116.165 102.58 116.165C101.22 116.165 100.133 115.671 99.3216 114.683C98.5097 113.696 98.1038 112.401 98.1038 110.8C98.1038 109.044 98.5097 107.387 99.3216 105.829C100.133 104.25 101.209 102.988 102.547 102.044C103.908 101.079 105.345 100.596 106.859 100.596C107.342 100.596 107.66 100.695 107.813 100.892C107.989 101.068 108.132 101.397 108.241 101.88C108.658 101.792 109.141 101.748 109.69 101.748C110.238 101.748 110.622 101.836 110.842 102.011C111.083 102.165 111.204 102.483 111.204 102.966C111.204 103.229 111.193 103.438 111.171 103.591C111.083 104.272 110.809 105.994 110.348 108.759C110.26 109.285 110.161 109.867 110.052 110.503C109.964 111.118 109.865 111.776 109.755 112.478C111.445 111.162 113.069 109.999 114.627 108.989C114.912 108.814 115.164 108.726 115.384 108.726ZM103.765 112.84C104.27 112.84 104.752 112.533 105.213 111.919C105.674 111.304 106.003 110.427 106.201 109.285L107.254 103.657C106.354 103.679 105.52 104.03 104.752 104.71C103.984 105.369 103.37 106.246 102.909 107.344C102.448 108.441 102.218 109.604 102.218 110.832C102.218 111.513 102.35 112.017 102.613 112.347C102.898 112.676 103.282 112.84 103.765 112.84ZM101.033 127.783C101.582 127.783 102.196 127.125 102.876 125.808C103.579 124.492 104.248 122.396 104.884 119.522C103.195 120.97 101.977 122.276 101.231 123.439C100.485 124.602 100.112 125.622 100.112 126.5C100.112 126.873 100.177 127.18 100.309 127.421C100.463 127.663 100.704 127.783 101.033 127.783ZM116.265 116.165C115.431 116.165 114.839 115.726 114.488 114.848C114.158 113.97 113.994 112.566 113.994 110.635C113.994 107.782 114.4 105.072 115.212 102.505C115.409 101.869 115.727 101.408 116.166 101.123C116.627 100.816 117.263 100.662 118.075 100.662C118.514 100.662 118.821 100.717 118.997 100.827C119.172 100.936 119.26 101.145 119.26 101.452C119.26 101.803 119.096 102.593 118.766 103.822C118.547 104.699 118.372 105.467 118.24 106.126C118.108 106.784 117.998 107.596 117.911 108.561C118.635 106.674 119.447 105.138 120.346 103.953C121.246 102.768 122.124 101.924 122.98 101.419C123.857 100.914 124.658 100.662 125.382 100.662C126.809 100.662 127.522 101.375 127.522 102.801C127.522 103.657 127.28 105.204 126.798 107.442C126.381 109.351 126.172 110.613 126.172 111.227C126.172 112.105 126.49 112.544 127.127 112.544C127.566 112.544 128.081 112.281 128.674 111.754C129.288 111.205 130.1 110.328 131.109 109.121C131.373 108.814 131.669 108.66 131.998 108.66C132.283 108.66 132.503 108.792 132.656 109.055C132.832 109.318 132.92 109.68 132.92 110.141C132.92 111.019 132.711 111.699 132.294 112.182C131.351 113.345 130.33 114.299 129.233 115.045C128.158 115.792 126.929 116.165 125.547 116.165C124.428 116.165 123.583 115.846 123.012 115.21C122.442 114.552 122.157 113.608 122.157 112.379C122.157 111.765 122.31 110.668 122.617 109.088C122.903 107.706 123.045 106.751 123.045 106.224C123.045 105.873 122.925 105.698 122.683 105.698C122.398 105.698 121.992 106.071 121.465 106.817C120.961 107.541 120.434 108.507 119.886 109.713C119.359 110.92 118.931 112.193 118.602 113.531C118.361 114.563 118.075 115.265 117.746 115.638C117.439 115.989 116.945 116.165 116.265 116.165ZM136.379 116.889C135.238 116.889 134.36 116.625 133.746 116.099C133.153 115.572 132.857 114.98 132.857 114.321C132.857 113.751 133.065 113.257 133.482 112.84C133.899 112.423 134.514 112.215 135.325 112.215C135.611 112.215 135.94 112.248 136.313 112.314C136.708 112.357 137.004 112.39 137.202 112.412C137.18 111.842 137.048 111.304 136.807 110.8C136.587 110.295 136.302 109.812 135.951 109.351C135.6 108.869 135.271 108.452 134.963 108.101C134.283 109.395 133.603 110.47 132.923 111.326C132.264 112.182 131.54 112.994 130.75 113.762C130.355 114.157 129.938 114.354 129.5 114.354C129.149 114.354 128.863 114.234 128.644 113.992C128.424 113.729 128.315 113.411 128.315 113.038C128.315 112.599 128.468 112.193 128.776 111.82L129.203 111.293C130.41 109.801 131.321 108.572 131.935 107.607C132.33 106.971 132.725 106.213 133.12 105.336C133.537 104.458 134.075 103.262 134.733 101.748C135.15 100.783 136.017 100.3 137.333 100.3C137.948 100.3 138.376 100.355 138.617 100.464C138.858 100.574 138.979 100.75 138.979 100.991C138.979 101.123 138.935 101.331 138.847 101.616C138.76 101.902 138.639 102.187 138.485 102.472C138.09 103.262 137.893 103.931 137.893 104.48C137.893 104.809 138.002 105.171 138.222 105.566C138.463 105.961 138.825 106.455 139.308 107.047C140.01 107.969 140.537 108.759 140.888 109.417C141.261 110.053 141.448 110.756 141.448 111.524C141.448 112.445 141.228 113.323 140.789 114.157C140.372 114.969 139.78 115.627 139.012 116.132C138.244 116.636 137.366 116.889 136.379 116.889Z" fill="white"/>
</svg>
