<svg width="175" height="203" viewBox="0 0 175 203" fill="none" xmlns="http://www.w3.org/2000/svg">
<path d="M21 133H154V184.5C154 194.717 145.717 203 135.5 203H39.5C29.2827 203 21 194.717 21 184.5V133Z" fill="#D70000"/>
<path d="M153 70L20 70L20 18.5C20 8.28273 28.2827 4.35566e-06 38.5 5.24888e-06L134.5 1.36415e-05C144.717 1.45347e-05 153 8.28275 153 18.5L153 70Z" fill="#D70000"/>
<rect y="14" width="175" height="175" rx="43" fill="#870000"/>
<path d="M43.5072 111.165C42.2346 111.165 40.7973 111.055 39.1955 110.835C38.3178 110.726 37.7143 110.495 37.3852 110.144C37.056 109.793 36.9134 109.223 36.9573 108.433C37.1109 106.26 37.473 103.583 38.0435 100.402C38.614 97.1979 39.3052 94.115 40.1171 91.1527C40.2707 90.6041 40.5779 90.2201 41.0387 90.0007C41.4995 89.7813 42.1029 89.6715 42.849 89.6715C44.1875 89.6715 44.8567 90.0446 44.8567 90.7906C44.8567 91.0978 44.7909 91.4489 44.6592 91.8439C44.0887 93.5993 43.5182 95.9582 42.9477 98.9205C42.3772 101.861 41.9712 104.669 41.7299 107.347C42.3882 107.412 43.1342 107.445 43.968 107.445C47.808 107.445 50.6716 106.282 52.5587 103.956C54.4677 101.63 55.4222 98.5255 55.4222 94.6416C55.4222 92.0304 54.6762 90.0117 53.184 88.5854C51.6919 87.1591 49.5854 86.4459 46.8645 86.4459C45.1091 86.4459 43.3646 86.7202 41.6311 87.2688C39.9196 87.8174 38.3726 88.5415 36.9902 89.4411C36.705 89.6386 36.3978 89.7374 36.0686 89.7374C35.6956 89.7374 35.3994 89.5838 35.1799 89.2766C34.9605 88.9474 34.8508 88.5525 34.8508 88.0917C34.8508 87.565 34.9386 87.1371 35.1141 86.808C35.2896 86.4569 35.5859 86.1387 36.0028 85.8535C37.5168 84.8222 39.2942 84.0432 41.3349 83.5166C43.3756 82.968 45.3395 82.6937 47.2266 82.6937C49.9036 82.6937 52.2186 83.1655 54.1715 84.109C56.1244 85.0306 57.6275 86.3911 58.6807 88.1904C59.734 89.9897 60.2606 92.1621 60.2606 94.7074C60.2606 98.0208 59.6023 100.917 58.2858 103.397C56.9692 105.854 55.0492 107.763 52.5258 109.124C50.0023 110.484 46.9962 111.165 43.5072 111.165ZM77.1436 103.66C77.4288 103.66 77.6483 103.792 77.8019 104.055C77.9774 104.318 78.0652 104.68 78.0652 105.141C78.0652 106.019 77.8567 106.699 77.4398 107.182C76.6279 108.169 75.4759 109.08 73.9838 109.914C72.5136 110.748 70.9338 111.165 69.2442 111.165C66.9402 111.165 65.1518 110.539 63.8791 109.288C62.6064 108.038 61.9701 106.326 61.9701 104.154C61.9701 102.64 62.2883 101.235 62.9246 99.9408C63.561 98.6242 64.4387 97.5819 65.5578 96.8139C66.6988 96.0459 67.9824 95.6619 69.4087 95.6619C70.6814 95.6619 71.7018 96.0459 72.4698 96.8139C73.2378 97.56 73.6218 98.5803 73.6218 99.875C73.6218 101.389 73.0732 102.695 71.976 103.792C70.9008 104.867 69.0686 105.723 66.4794 106.359C67.0279 107.368 68.0702 107.873 69.6062 107.873C70.5936 107.873 71.7127 107.533 72.9635 106.853C74.2362 106.151 75.3333 105.24 76.2549 104.121C76.5182 103.814 76.8144 103.66 77.1436 103.66ZM68.8492 98.8875C68.0373 98.8875 67.3461 99.3593 66.7756 100.303C66.227 101.246 65.9527 102.387 65.9527 103.726V103.792C67.2474 103.485 68.2677 103.024 69.0138 102.409C69.7598 101.795 70.1328 101.082 70.1328 100.27C70.1328 99.853 70.0122 99.5239 69.7708 99.2825C69.5514 99.0192 69.2442 98.8875 68.8492 98.8875ZM81.5073 111.889C80.3663 111.889 79.4886 111.625 78.8742 111.099C78.2817 110.572 77.9855 109.98 77.9855 109.321C77.9855 108.751 78.1939 108.257 78.6108 107.84C79.0278 107.423 79.6422 107.215 80.454 107.215C80.7393 107.215 81.0684 107.248 81.4415 107.314C81.8364 107.357 82.1327 107.39 82.3302 107.412C82.3082 106.842 82.1766 106.304 81.9352 105.8C81.7158 105.295 81.4305 104.812 81.0794 104.351C80.7283 103.869 80.3992 103.452 80.092 103.101C79.4118 104.395 78.7315 105.47 78.0513 106.326C77.393 107.182 76.6689 107.994 75.879 108.762C75.484 109.157 75.0671 109.354 74.6282 109.354C74.2771 109.354 73.9919 109.234 73.7724 108.992C73.553 108.729 73.4433 108.411 73.4433 108.038C73.4433 107.599 73.5969 107.193 73.9041 106.82L74.332 106.293C75.5388 104.801 76.4495 103.572 77.0639 102.607C77.4369 101.971 77.8758 101.126 78.3804 100.072C78.8851 98.9973 79.3788 97.8891 79.8616 96.7481C80.2785 95.7826 81.1452 95.2999 82.4618 95.2999C83.0762 95.2999 83.5041 95.3547 83.7455 95.4645C83.9868 95.5742 84.1075 95.7497 84.1075 95.9911C84.1075 96.1227 84.0636 96.3312 83.9759 96.6165C83.8881 96.9017 83.7674 97.187 83.6138 97.4722C83.2188 98.2622 83.0214 98.9314 83.0214 99.48C83.0214 99.8091 83.1311 100.171 83.3505 100.566C83.5919 100.961 83.9539 101.455 84.4367 102.047C85.1388 102.969 85.6655 103.759 86.0166 104.417C86.3896 105.053 86.5761 105.756 86.5761 106.524C86.5761 106.743 86.5542 107.05 86.5103 107.445C87.5855 107.028 88.8472 105.92 90.2954 104.121C90.5587 103.814 90.855 103.66 91.1841 103.66C91.4694 103.66 91.6888 103.792 91.8424 104.055C92.0179 104.318 92.1057 104.68 92.1057 105.141C92.1057 105.975 91.8972 106.655 91.4803 107.182C90.3832 108.542 89.3299 109.475 88.3206 109.98C87.3331 110.462 86.1043 110.726 84.6342 110.77C83.7564 111.516 82.7142 111.889 81.5073 111.889ZM93.7434 93.4896C92.8218 93.4896 92.1306 93.2811 91.6698 92.8642C91.209 92.4254 90.9786 91.8219 90.9786 91.0539C90.9786 90.2859 91.2749 89.6496 91.8673 89.1449C92.4817 88.6183 93.2388 88.355 94.1384 88.355C94.9503 88.355 95.6086 88.5525 96.1133 88.9474C96.618 89.3424 96.8703 89.9019 96.8703 90.6261C96.8703 91.5038 96.585 92.2059 96.0145 92.7326C95.444 93.2373 94.687 93.4896 93.7434 93.4896ZM93.4801 111.165C92.0538 111.165 91.0116 110.66 90.3533 109.651C89.7169 108.641 89.3988 107.303 89.3988 105.635C89.3988 104.648 89.5194 103.386 89.7608 101.85C90.0241 100.292 90.3533 98.8437 90.7482 97.5051C90.9457 96.803 91.209 96.3202 91.5382 96.0569C91.8673 95.7936 92.394 95.6619 93.1181 95.6619C94.2372 95.6619 94.7967 96.035 94.7967 96.781C94.7967 97.3296 94.5882 98.6023 94.1713 100.599C93.6447 103.013 93.3814 104.648 93.3814 105.503C93.3814 106.162 93.4692 106.666 93.6447 107.017C93.8202 107.368 94.1165 107.544 94.5334 107.544C94.9284 107.544 95.4221 107.27 96.0145 106.721C96.607 106.173 97.3969 105.306 98.3844 104.121C98.6477 103.814 98.9439 103.66 99.273 103.66C99.5583 103.66 99.7777 103.792 99.9313 104.055C100.107 104.318 100.195 104.68 100.195 105.141C100.195 106.019 99.9862 106.699 99.5693 107.182C97.3969 109.837 95.3672 111.165 93.4801 111.165ZM114.384 103.726C114.669 103.726 114.888 103.869 115.042 104.154C115.218 104.417 115.305 104.757 115.305 105.174C115.305 105.679 115.229 106.074 115.075 106.359C114.921 106.644 114.68 106.897 114.351 107.116C112.464 108.389 111.081 109.332 110.204 109.947L108.097 111.362C107.263 115.904 106.166 119.47 104.806 122.059C103.467 124.67 101.756 125.976 99.6711 125.976C98.552 125.976 97.6414 125.625 96.9392 124.923C96.237 124.243 95.886 123.343 95.886 122.224C95.886 120.666 96.5004 118.987 97.7292 117.188C98.958 115.411 101.262 113.216 104.641 110.605L104.839 109.321C104.466 109.914 103.972 110.375 103.357 110.704C102.765 111.011 102.173 111.165 101.58 111.165C100.22 111.165 99.1335 110.671 98.3216 109.683C97.5097 108.696 97.1038 107.401 97.1038 105.8C97.1038 104.044 97.5097 102.387 98.3216 100.829C99.1335 99.2496 100.209 97.9879 101.547 97.0443C102.908 96.0789 104.345 95.5961 105.859 95.5961C106.342 95.5961 106.66 95.6949 106.813 95.8923C106.989 96.0679 107.132 96.397 107.241 96.8798C107.658 96.792 108.141 96.7481 108.69 96.7481C109.238 96.7481 109.622 96.8359 109.842 97.0114C110.083 97.165 110.204 97.4832 110.204 97.9659C110.204 98.2293 110.193 98.4377 110.171 98.5913C110.083 99.2715 109.809 100.994 109.348 103.759C109.26 104.285 109.161 104.867 109.052 105.503C108.964 106.118 108.865 106.776 108.755 107.478C110.445 106.162 112.069 104.999 113.627 103.989C113.912 103.814 114.164 103.726 114.384 103.726ZM102.765 107.84C103.27 107.84 103.752 107.533 104.213 106.919C104.674 106.304 105.003 105.427 105.201 104.285L106.254 98.6571C105.354 98.6791 104.52 99.0302 103.752 99.7104C102.984 100.369 102.37 101.246 101.909 102.344C101.448 103.441 101.218 104.604 101.218 105.832C101.218 106.513 101.35 107.017 101.613 107.347C101.898 107.676 102.282 107.84 102.765 107.84ZM100.033 122.783C100.582 122.783 101.196 122.125 101.876 120.808C102.579 119.492 103.248 117.396 103.884 114.522C102.195 115.97 100.977 117.276 100.231 118.439C99.4846 119.602 99.1116 120.622 99.1116 121.5C99.1116 121.873 99.1774 122.18 99.309 122.421C99.4626 122.663 99.704 122.783 100.033 122.783ZM115.265 111.165C114.431 111.165 113.839 110.726 113.488 109.848C113.158 108.97 112.994 107.566 112.994 105.635C112.994 102.782 113.4 100.072 114.212 97.5051C114.409 96.8688 114.727 96.408 115.166 96.1227C115.627 95.8155 116.263 95.6619 117.075 95.6619C117.514 95.6619 117.821 95.7168 117.997 95.8265C118.172 95.9362 118.26 96.1447 118.26 96.4519C118.26 96.803 118.096 97.5929 117.766 98.8217C117.547 99.6994 117.372 100.467 117.24 101.126C117.108 101.784 116.998 102.596 116.911 103.561C117.635 101.674 118.447 100.138 119.346 98.9534C120.246 97.7685 121.124 96.9237 121.98 96.419C122.857 95.9143 123.658 95.6619 124.382 95.6619C125.809 95.6619 126.522 96.3751 126.522 97.8014C126.522 98.6571 126.28 100.204 125.798 102.442C125.381 104.351 125.172 105.613 125.172 106.227C125.172 107.105 125.49 107.544 126.127 107.544C126.566 107.544 127.081 107.281 127.674 106.754C128.288 106.205 129.1 105.328 130.109 104.121C130.373 103.814 130.669 103.66 130.998 103.66C131.283 103.66 131.503 103.792 131.656 104.055C131.832 104.318 131.92 104.68 131.92 105.141C131.92 106.019 131.711 106.699 131.294 107.182C130.351 108.345 129.33 109.299 128.233 110.045C127.158 110.792 125.929 111.165 124.547 111.165C123.428 111.165 122.583 110.846 122.012 110.21C121.442 109.552 121.157 108.608 121.157 107.379C121.157 106.765 121.31 105.668 121.617 104.088C121.903 102.706 122.045 101.751 122.045 101.224C122.045 100.873 121.925 100.698 121.683 100.698C121.398 100.698 120.992 101.071 120.465 101.817C119.961 102.541 119.434 103.507 118.886 104.713C118.359 105.92 117.931 107.193 117.602 108.531C117.361 109.563 117.075 110.265 116.746 110.638C116.439 110.989 115.945 111.165 115.265 111.165ZM135.379 111.889C134.238 111.889 133.36 111.625 132.746 111.099C132.153 110.572 131.857 109.98 131.857 109.321C131.857 108.751 132.065 108.257 132.482 107.84C132.899 107.423 133.514 107.215 134.325 107.215C134.611 107.215 134.94 107.248 135.313 107.314C135.708 107.357 136.004 107.39 136.202 107.412C136.18 106.842 136.048 106.304 135.807 105.8C135.587 105.295 135.302 104.812 134.951 104.351C134.6 103.869 134.271 103.452 133.963 103.101C133.283 104.395 132.603 105.47 131.923 106.326C131.264 107.182 130.54 107.994 129.75 108.762C129.355 109.157 128.938 109.354 128.5 109.354C128.149 109.354 127.863 109.234 127.644 108.992C127.424 108.729 127.315 108.411 127.315 108.038C127.315 107.599 127.468 107.193 127.776 106.82L128.203 106.293C129.41 104.801 130.321 103.572 130.935 102.607C131.33 101.971 131.725 101.213 132.12 100.336C132.537 99.4581 133.075 98.2622 133.733 96.7481C134.15 95.7826 135.017 95.2999 136.333 95.2999C136.948 95.2999 137.376 95.3547 137.617 95.4645C137.858 95.5742 137.979 95.7497 137.979 95.9911C137.979 96.1227 137.935 96.3312 137.847 96.6165C137.76 96.9017 137.639 97.187 137.485 97.4722C137.09 98.2622 136.893 98.9314 136.893 99.48C136.893 99.8091 137.002 100.171 137.222 100.566C137.463 100.961 137.825 101.455 138.308 102.047C139.01 102.969 139.537 103.759 139.888 104.417C140.261 105.053 140.448 105.756 140.448 106.524C140.448 107.445 140.228 108.323 139.789 109.157C139.372 109.969 138.78 110.627 138.012 111.132C137.244 111.636 136.366 111.889 135.379 111.889Z" fill="white"/>
</svg>
