<svg width="175" height="203" viewBox="0 0 175 203" fill="none" xmlns="http://www.w3.org/2000/svg">
<path d="M21 133H154V184.5C154 194.717 145.717 203 135.5 203H39.5C29.2827 203 21 194.717 21 184.5V133Z" fill="#0078A3"/>
<path d="M153 70L20 70L20 18.5C20 8.28273 28.2827 4.35566e-06 38.5 5.24888e-06L134.5 1.36415e-05C144.717 1.45347e-05 153 8.28275 153 18.5L153 70Z" fill="#0078A3"/>
<rect y="14" width="175" height="175" rx="43" fill="#003244"/>
<path d="M53.6736 117.165C52.8617 117.165 52.2802 116.989 51.9292 116.638C51.5781 116.265 51.4025 115.574 51.4025 114.564C51.4025 113.884 51.4684 113.017 51.6 111.964C51.7536 110.889 51.995 109.419 52.3241 107.554C52.8946 104.109 53.3445 101.124 53.6736 98.6009C53.8711 97.021 53.9698 95.7045 53.9698 94.6512C53.9698 93.6638 53.6078 93.1701 52.8837 93.1701C52.3132 93.1701 51.622 93.4663 50.8101 94.0587C50.0201 94.6293 49.1424 95.5509 48.1769 96.8235C47.8697 97.2405 47.5296 97.4489 47.1566 97.4489C46.8494 97.4489 46.5751 97.3063 46.3337 97.021C46.1143 96.7138 46.0046 96.3737 46.0046 96.0007C46.0046 95.6496 46.0704 95.2985 46.2021 94.9474C46.3557 94.5744 46.597 94.1575 46.9262 93.6967C47.9794 92.2265 49.1534 91.0965 50.448 90.3065C51.7426 89.4946 53.0373 89.0887 54.3319 89.0887C55.5388 89.0887 56.4604 89.4727 57.0967 90.2407C57.755 91.0087 58.0841 92.1278 58.0841 93.5979C58.0841 94.1904 58.0293 94.8926 57.9196 95.7045C57.8098 96.4944 57.7111 97.1417 57.6233 97.6464C57.5356 98.1511 57.4697 98.5022 57.4258 98.6997C58.6766 95.123 60.0809 92.6325 61.6389 91.2281C63.1968 89.8018 64.9084 89.0887 66.7735 89.0887C68.1998 89.0887 69.3189 89.5934 70.1308 90.6027C70.9646 91.6121 71.3815 93.0384 71.3815 94.8816C71.3815 95.6057 71.2828 96.5054 71.0853 97.5806C72.1824 94.5525 73.4661 92.3801 74.9362 91.0635C76.4064 89.747 78.096 89.0887 80.005 89.0887C81.541 89.0887 82.715 89.5824 83.5269 90.5698C84.3607 91.5573 84.7776 92.9397 84.7776 94.717C84.7776 95.6825 84.635 96.8565 84.3497 98.2389L82.342 107.652C82.1225 108.749 82.0128 109.693 82.0128 110.483C82.0128 111.405 82.2213 112.096 82.6382 112.557C83.077 113.017 83.6805 113.248 84.4485 113.248C85.1726 113.248 85.8748 113.006 86.555 112.524C87.2572 112.041 88.08 111.24 89.0236 110.121C89.2869 109.814 89.5831 109.66 89.9122 109.66C90.1975 109.66 90.4169 109.792 90.5705 110.055C90.7461 110.318 90.8338 110.68 90.8338 111.141C90.8338 111.997 90.6254 112.677 90.2085 113.182C89.0674 114.564 87.9374 115.574 86.8183 116.21C85.6992 116.846 84.5253 117.165 83.2965 117.165C81.4313 117.165 79.9721 116.616 78.9189 115.519C77.8656 114.4 77.339 112.908 77.339 111.043C77.339 109.748 77.6023 107.872 78.1289 105.414L79.4455 99.3909C79.4894 99.1934 79.5662 98.8423 79.6759 98.3376C79.7856 97.8329 79.8734 97.3611 79.9392 96.9223C80.005 96.4615 80.038 96.0117 80.038 95.5728C80.038 94.8048 79.8844 94.2343 79.5772 93.8613C79.2919 93.4663 78.875 93.2688 78.3264 93.2688C77.2951 93.2688 76.2089 93.9381 75.0679 95.2766C73.9488 96.5931 72.8736 98.7874 71.8423 101.859C70.8329 104.931 70.0101 108.925 69.3737 113.84C69.2201 115.157 68.9458 116.045 68.5509 116.506C68.1778 116.945 67.5634 117.165 66.7077 117.165C65.9616 117.165 65.413 116.989 65.062 116.638C64.7328 116.287 64.5682 115.629 64.5682 114.663C64.5682 113.763 64.6889 112.589 64.9303 111.141C65.1717 109.671 65.4789 107.949 65.8519 105.974C66.8613 100.664 67.366 97.2405 67.366 95.7045C67.366 94.8706 67.2014 94.2562 66.8722 93.8613C66.565 93.4663 66.0933 93.2688 65.4569 93.2688C64.3817 93.2688 63.2736 93.8832 62.1326 95.112C60.9916 96.3189 59.8725 98.4802 58.7753 101.596C57.7001 104.69 56.8005 108.881 56.0764 114.169C55.9228 115.288 55.6924 116.067 55.3852 116.506C55.0999 116.945 54.5294 117.165 53.6736 117.165ZM104.968 106.895C105.253 106.895 105.473 107.038 105.626 107.323C105.78 107.608 105.857 107.971 105.857 108.409C105.857 109.463 105.538 110.088 104.902 110.285C103.586 110.746 102.137 111.01 100.557 111.075C100.141 112.919 99.3177 114.4 98.0889 115.519C96.8601 116.616 95.4667 117.165 93.9088 117.165C92.5922 117.165 91.4621 116.846 90.5186 116.21C89.597 115.574 88.8948 114.729 88.4121 113.676C87.9293 112.622 87.688 111.481 87.688 110.253C87.688 108.585 88.0061 107.104 88.6425 105.809C89.2788 104.493 90.1565 103.472 91.2756 102.748C92.3947 102.002 93.6345 101.629 94.9949 101.629C96.6626 101.629 98.0011 102.211 99.0105 103.373C100.042 104.515 100.645 105.93 100.821 107.619C101.852 107.554 103.081 107.334 104.507 106.961C104.683 106.917 104.836 106.895 104.968 106.895ZM94.1721 113.676C94.8742 113.676 95.4777 113.39 95.9824 112.82C96.509 112.249 96.8601 111.427 97.0356 110.351C96.3554 109.891 95.8288 109.287 95.4557 108.541C95.1046 107.795 94.9291 107.005 94.9291 106.171C94.9291 105.82 94.962 105.469 95.0278 105.118H94.8633C93.9856 105.118 93.2505 105.546 92.658 106.402C92.0875 107.235 91.8022 108.42 91.8022 109.956C91.8022 111.163 92.0326 112.085 92.4934 112.721C92.9762 113.357 93.5357 113.676 94.1721 113.676ZM105.369 117.165C104.535 117.165 103.942 116.726 103.591 115.848C103.262 114.97 103.097 113.566 103.097 111.635C103.097 108.782 103.503 106.072 104.315 103.505C104.513 102.869 104.831 102.408 105.27 102.123C105.731 101.816 106.367 101.662 107.179 101.662C107.618 101.662 107.925 101.717 108.1 101.827C108.276 101.936 108.364 102.145 108.364 102.452C108.364 102.803 108.199 103.593 107.87 104.822C107.651 105.699 107.475 106.467 107.343 107.126C107.212 107.784 107.102 108.596 107.014 109.561C107.738 107.674 108.55 106.138 109.45 104.953C110.35 103.768 111.227 102.924 112.083 102.419C112.961 101.914 113.762 101.662 114.486 101.662C115.912 101.662 116.625 102.375 116.625 103.801C116.625 104.087 116.527 104.778 116.329 105.875C116.153 106.753 116.066 107.301 116.066 107.521C116.066 108.289 116.34 108.673 116.889 108.673C117.503 108.673 118.293 108.19 119.258 107.224C119.544 106.939 119.84 106.797 120.147 106.797C120.432 106.797 120.652 106.928 120.805 107.192C120.981 107.433 121.069 107.762 121.069 108.179C121.069 108.991 120.849 109.627 120.41 110.088C119.796 110.724 119.072 111.273 118.238 111.734C117.426 112.173 116.559 112.392 115.638 112.392C114.475 112.392 113.586 112.096 112.972 111.503C112.379 110.911 112.083 110.11 112.083 109.101C112.083 108.771 112.116 108.442 112.182 108.113C112.226 107.674 112.248 107.378 112.248 107.224C112.248 106.873 112.127 106.698 111.886 106.698C111.556 106.698 111.118 107.071 110.569 107.817C110.042 108.541 109.516 109.507 108.989 110.713C108.463 111.92 108.035 113.193 107.705 114.531C107.464 115.563 107.179 116.265 106.85 116.638C106.543 116.989 106.049 117.165 105.369 117.165ZM129.794 110.648C130.079 110.648 130.298 110.779 130.452 111.043C130.627 111.306 130.715 111.668 130.715 112.129C130.715 112.919 130.529 113.599 130.156 114.169C129.541 115.113 128.729 115.848 127.72 116.375C126.733 116.901 125.548 117.165 124.165 117.165C122.059 117.165 120.424 116.539 119.261 115.288C118.098 114.016 117.517 112.304 117.517 110.154C117.517 108.64 117.835 107.235 118.471 105.941C119.107 104.624 119.985 103.582 121.104 102.814C122.245 102.046 123.529 101.662 124.955 101.662C126.228 101.662 127.248 102.046 128.016 102.814C128.784 103.56 129.168 104.58 129.168 105.875C129.168 107.389 128.62 108.695 127.522 109.792C126.447 110.867 124.604 111.723 121.993 112.359C122.52 113.368 123.408 113.873 124.659 113.873C125.559 113.873 126.294 113.665 126.864 113.248C127.457 112.831 128.137 112.129 128.905 111.141C129.168 110.812 129.464 110.648 129.794 110.648ZM124.396 104.888C123.584 104.888 122.893 105.359 122.322 106.303C121.773 107.246 121.499 108.387 121.499 109.726V109.792C122.794 109.485 123.814 109.024 124.56 108.409C125.306 107.795 125.679 107.082 125.679 106.27C125.679 105.853 125.559 105.524 125.317 105.283C125.098 105.019 124.791 104.888 124.396 104.888Z" fill="white"/>
</svg>
