<svg width="175" height="203" viewBox="0 0 175 203" fill="none" xmlns="http://www.w3.org/2000/svg">
<path d="M21 133H154V184.5C154 194.717 145.717 203 135.5 203H39.5C29.2827 203 21 194.717 21 184.5V133Z" fill="#8200A0"/>
<path d="M153 70L20 70L20 18.5C20 8.28272 28.2827 -1.09031e-05 38.5 -1.00099e-05L134.5 -1.61732e-06C144.717 -7.241e-07 153 8.28273 153 18.5L153 70Z" fill="#8200A0"/>
<rect y="14" width="175" height="175" rx="43" fill="#3C004A"/>
<path d="M70.633 97.6093C69.9293 97.6093 69.4254 97.4572 69.1211 97.1529C68.8168 96.8296 68.6647 96.2306 68.6647 95.3558C68.6647 94.7662 68.7217 94.0151 68.8358 93.1022C68.969 92.1704 69.1782 90.8963 69.4634 89.2798C69.9579 86.2941 70.3477 83.7078 70.633 81.5208C70.8041 80.1516 70.8897 79.0105 70.8897 78.0977C70.8897 77.2419 70.5759 76.8141 69.9483 76.8141C69.4539 76.8141 68.8549 77.0708 68.1512 77.5843C67.4666 78.0787 66.7059 78.8774 65.8692 79.9804C65.6029 80.3417 65.3082 80.5224 64.9849 80.5224C64.7186 80.5224 64.4809 80.3988 64.2717 80.1516C64.0816 79.8853 63.9865 79.5906 63.9865 79.2673C63.9865 78.963 64.0435 78.6587 64.1576 78.3544C64.2907 78.0312 64.4999 77.6698 64.7852 77.2705C65.698 75.9963 66.7154 75.0169 67.8374 74.3323C68.9595 73.6287 70.0815 73.2769 71.2035 73.2769C72.2494 73.2769 73.0481 73.6097 73.5996 74.2753C74.1702 74.9409 74.4554 75.9107 74.4554 77.1849C74.4554 77.6984 74.4079 78.3069 74.3128 79.0105C74.2177 79.6952 74.1321 80.2562 74.0561 80.6936C73.98 81.1309 73.9229 81.4352 73.8849 81.6064C74.9689 78.5066 76.186 76.3481 77.5362 75.131C78.8864 73.8949 80.3697 73.2769 81.9862 73.2769C83.2223 73.2769 84.1922 73.7143 84.8958 74.5891C85.6185 75.4638 85.9798 76.7 85.9798 78.2974C85.9798 78.925 85.8942 79.7047 85.7231 80.6365C86.6739 78.0121 87.7864 76.1294 89.0606 74.9884C90.3347 73.8474 91.799 73.2769 93.4535 73.2769C94.7847 73.2769 95.8022 73.7048 96.5058 74.5605C97.2284 75.4163 97.5898 76.6144 97.5898 78.1548C97.5898 78.9915 97.4662 80.0089 97.2189 81.207L95.4789 89.3654C95.2887 90.3162 95.1936 91.134 95.1936 91.8186C95.1936 92.6173 95.3743 93.2163 95.7356 93.6157C96.1159 94.0151 96.6389 94.2147 97.3045 94.2147C97.9321 94.2147 98.5406 94.0056 99.1302 93.5872C99.7387 93.1688 100.452 92.4747 101.27 91.5048C101.498 91.2386 101.755 91.1054 102.04 91.1054C102.287 91.1054 102.477 91.2195 102.61 91.4477C102.762 91.676 102.838 91.9897 102.838 92.3891C102.838 93.1308 102.658 93.7203 102.297 94.1577C101.308 95.3558 100.328 96.2306 99.3584 96.7821C98.3885 97.3336 97.3711 97.6093 96.3061 97.6093C94.6897 97.6093 93.425 97.1339 92.5122 96.183C91.5994 95.2131 91.143 93.92 91.143 92.3035C91.143 91.1815 91.3712 89.5555 91.8276 87.4256L92.9686 82.2054C93.0066 82.0343 93.0732 81.73 93.1683 81.2926C93.2634 80.8552 93.3394 80.4463 93.3965 80.066C93.4535 79.6666 93.4821 79.2768 93.4821 78.8964C93.4821 78.2308 93.3489 77.7364 93.0827 77.4131C92.8355 77.0708 92.4742 76.8996 91.9987 76.8996C91.1049 76.8996 90.1636 77.4797 89.1747 78.6397C88.2048 79.7807 87.273 81.6824 86.3792 84.3448C85.5044 87.0072 84.7912 90.4684 84.2397 94.7282C84.1066 95.8692 83.8689 96.6394 83.5266 97.0388C83.2033 97.4191 82.6708 97.6093 81.9291 97.6093C81.2826 97.6093 80.8071 97.4572 80.5029 97.1529C80.2176 96.8486 80.075 96.2781 80.075 95.4413C80.075 94.6616 80.1796 93.6442 80.3888 92.3891C80.5979 91.1149 80.8642 89.6221 81.1875 87.9106C82.0623 83.3084 82.4997 80.3417 82.4997 79.0105C82.4997 78.2879 82.357 77.7554 82.0718 77.4131C81.8055 77.0708 81.3967 76.8996 80.8452 76.8996C79.9133 76.8996 78.953 77.4321 77.9641 78.4971C76.9752 79.543 76.0053 81.4162 75.0545 84.1166C74.1226 86.7981 73.3429 90.4303 72.7153 95.0135C72.5822 95.9833 72.3825 96.6584 72.1163 97.0388C71.8691 97.4191 71.3746 97.6093 70.633 97.6093ZM110.524 84.1737C110.961 84.1737 111.266 84.2307 111.437 84.3448C111.608 84.4589 111.694 84.6491 111.694 84.9154C111.694 85.3718 111.446 86.9977 110.952 89.7933C110.514 92.4747 110.258 94.0626 110.182 94.5571C109.478 99.4445 108.508 103.314 107.272 106.167C106.036 109.02 104.391 110.446 102.337 110.446C101.367 110.446 100.578 110.142 99.9694 109.533C99.3609 108.944 99.0566 108.164 99.0566 107.194C99.0566 106.3 99.2563 105.387 99.6557 104.455C100.074 103.524 100.835 102.449 101.938 101.232C103.06 100.034 104.638 98.6552 106.673 97.0958L106.759 96.4397C106.892 95.7361 107.044 94.7282 107.215 93.416C106.835 94.7853 106.302 95.8312 105.618 96.5539C104.933 97.2575 104.21 97.6093 103.45 97.6093C102.594 97.6093 101.89 97.2195 101.339 96.4397C100.806 95.641 100.54 94.6521 100.54 93.4731C100.54 92.0468 100.635 90.7441 100.825 89.5651C101.015 88.367 101.329 87.1023 101.767 85.7711C101.957 85.2006 102.223 84.7917 102.565 84.5445C102.908 84.2973 103.45 84.1737 104.191 84.1737C104.61 84.1737 104.895 84.2403 105.047 84.3734C105.218 84.5065 105.304 84.7062 105.304 84.9724C105.304 85.1245 105.199 85.638 104.99 86.5128C104.8 87.2164 104.648 87.8535 104.534 88.424C104.381 89.2037 104.248 89.9549 104.134 90.6776C104.02 91.3812 103.963 91.9612 103.963 92.4176C103.963 93.1403 104.163 93.5016 104.562 93.5016C104.847 93.5016 105.199 93.2163 105.618 92.6458C106.055 92.0753 106.511 91.21 106.987 90.05C107.481 88.8899 107.957 87.4637 108.413 85.7711C108.565 85.2006 108.793 84.7917 109.098 84.5445C109.421 84.2973 109.896 84.1737 110.524 84.1737ZM102.651 107.679C103.126 107.679 103.659 107.127 104.248 106.024C104.838 104.921 105.427 103.086 106.017 100.519C104.553 101.755 103.488 102.877 102.822 103.885C102.175 104.912 101.852 105.806 101.852 106.566C101.852 106.89 101.909 107.156 102.023 107.365C102.156 107.574 102.366 107.679 102.651 107.679ZM36.3911 136.609C34.128 136.609 32.1598 136.2 30.4863 135.383C28.8128 134.546 27.5291 133.367 26.6353 131.846C25.7415 130.324 25.2946 128.556 25.2946 126.54C25.2946 123.744 25.8176 121.262 26.8635 119.095C27.9285 116.927 29.3642 115.253 31.1709 114.074C32.9775 112.876 34.9838 112.277 37.1898 112.277C39.2437 112.277 40.8031 112.809 41.868 113.874C42.933 114.92 43.4655 116.309 43.4655 118.039C43.4655 119.199 43.2563 120.131 42.8379 120.835C42.4385 121.538 41.8585 121.89 41.0978 121.89C40.5653 121.89 40.147 121.766 39.8427 121.519C39.5384 121.272 39.3863 120.911 39.3863 120.435C39.3863 120.264 39.4243 119.95 39.5004 119.494C39.6145 118.923 39.6715 118.467 39.6715 118.125C39.6715 116.394 38.7492 115.529 36.9045 115.529C35.6494 115.529 34.4513 115.938 33.3103 116.755C32.1693 117.573 31.2469 118.781 30.5433 120.378C29.8397 121.957 29.4879 123.839 29.4879 126.026C29.4879 128.308 30.1249 130.077 31.3991 131.332C32.6732 132.568 34.5559 133.186 37.0472 133.186C38.2833 133.186 39.5289 133.034 40.784 132.73C42.0582 132.407 43.4655 131.922 45.0058 131.275C45.2911 131.161 45.5288 131.104 45.719 131.104C46.0233 131.104 46.2515 131.218 46.4036 131.446C46.5557 131.674 46.6318 131.969 46.6318 132.33C46.6318 133.49 46.0042 134.346 44.7491 134.898C43.3989 135.487 41.9916 135.925 40.5273 136.21C39.082 136.476 37.7033 136.609 36.3911 136.609ZM58.6634 127.709C58.9106 127.709 59.1008 127.833 59.2339 128.08C59.3671 128.327 59.4336 128.641 59.4336 129.021C59.4336 129.934 59.1579 130.476 58.6064 130.647C57.4653 131.047 56.2102 131.275 54.841 131.332C54.4797 132.929 53.7665 134.213 52.7015 135.183C51.6366 136.134 50.429 136.609 49.0788 136.609C47.9378 136.609 46.9584 136.334 46.1406 135.782C45.3419 135.231 44.7334 134.498 44.315 133.586C43.8966 132.673 43.6874 131.684 43.6874 130.619C43.6874 129.174 43.9632 127.89 44.5147 126.768C45.0662 125.627 45.8269 124.743 46.7967 124.115C47.7666 123.468 48.8411 123.145 50.0201 123.145C51.4654 123.145 52.6255 123.649 53.5003 124.657C54.3941 125.646 54.917 126.873 55.0692 128.337C55.963 128.28 57.0279 128.09 58.2641 127.766C58.4162 127.728 58.5493 127.709 58.6634 127.709ZM49.307 133.586C49.9155 133.586 50.4385 133.338 50.8759 132.844C51.3323 132.349 51.6366 131.636 51.7887 130.704C51.1992 130.305 50.7428 129.782 50.4195 129.136C50.1152 128.489 49.9631 127.804 49.9631 127.082C49.9631 126.777 49.9916 126.473 50.0487 126.169H49.906C49.1453 126.169 48.5083 126.54 47.9948 127.281C47.5004 128.004 47.2531 129.031 47.2531 130.362C47.2531 131.408 47.4528 132.207 47.8522 132.758C48.2706 133.31 48.7555 133.586 49.307 133.586ZM67.7966 130.105C68.0438 130.105 68.2339 130.22 68.3671 130.448C68.5192 130.676 68.5953 130.99 68.5953 131.389C68.5953 132.15 68.4146 132.739 68.0533 133.158C67.2355 134.166 66.3417 134.993 65.3719 135.639C64.421 136.286 63.337 136.609 62.1199 136.609C60.4464 136.609 59.2008 135.849 58.3831 134.327C57.5843 132.806 57.185 130.838 57.185 128.422C57.185 126.102 57.4798 123.459 58.0693 120.492C58.6778 117.526 59.5621 114.977 60.7222 112.847C61.9012 110.717 63.299 109.653 64.9155 109.653C65.8283 109.653 66.5414 110.08 67.0549 110.936C67.5874 111.773 67.8536 112.981 67.8536 114.559C67.8536 116.822 67.226 119.446 65.9709 122.432C64.7158 125.418 63.0137 128.375 60.8648 131.304C60.9979 132.083 61.2166 132.644 61.5209 132.987C61.8252 133.31 62.2245 133.471 62.719 133.471C63.4987 133.471 64.1833 133.253 64.7728 132.815C65.3624 132.359 66.1135 131.589 67.0264 130.505C67.2546 130.239 67.5113 130.105 67.7966 130.105ZM64.2879 112.477C63.8505 112.477 63.3561 113.266 62.8046 114.844C62.2531 116.423 61.7681 118.381 61.3497 120.72C60.9314 123.06 60.7032 125.304 60.6651 127.453C62.0153 125.228 63.0898 123.003 63.8885 120.778C64.6873 118.534 65.0866 116.489 65.0866 114.645C65.0866 113.199 64.8204 112.477 64.2879 112.477ZM77.1008 130.105C77.3481 130.105 77.5382 130.22 77.6714 130.448C77.8235 130.676 77.8996 130.99 77.8996 131.389C77.8996 132.15 77.7189 132.739 77.3576 133.158C76.5398 134.166 75.646 134.993 74.6762 135.639C73.7253 136.286 72.6413 136.609 71.4242 136.609C69.7507 136.609 68.5051 135.849 67.6874 134.327C66.8886 132.806 66.4893 130.838 66.4893 128.422C66.4893 126.102 66.784 123.459 67.3736 120.492C67.9821 117.526 68.8664 114.977 70.0265 112.847C71.2055 110.717 72.6033 109.653 74.2197 109.653C75.1326 109.653 75.8457 110.08 76.3592 110.936C76.8916 111.773 77.1579 112.981 77.1579 114.559C77.1579 116.822 76.5303 119.446 75.2752 122.432C74.0201 125.418 72.318 128.375 70.1691 131.304C70.3022 132.083 70.5209 132.644 70.8252 132.987C71.1295 133.31 71.5288 133.471 72.0233 133.471C72.803 133.471 73.4876 133.253 74.0771 132.815C74.6666 132.359 75.4178 131.589 76.3306 130.505C76.5588 130.239 76.8156 130.105 77.1008 130.105ZM73.5922 112.477C73.1548 112.477 72.6603 113.266 72.1088 114.844C71.5573 116.423 71.0724 118.381 70.654 120.72C70.2356 123.06 70.0074 125.304 69.9694 127.453C71.3196 125.228 72.3941 123.003 73.1928 120.778C73.9915 118.534 74.3909 116.489 74.3909 114.645C74.3909 113.199 74.1247 112.477 73.5922 112.477ZM88.3163 130.105C88.5636 130.105 88.7537 130.22 88.8869 130.448C89.039 130.676 89.1151 130.99 89.1151 131.389C89.1151 132.15 88.9344 132.739 88.5731 133.158C87.8694 134.013 86.871 134.803 85.5779 135.525C84.3037 136.248 82.9345 136.609 81.4702 136.609C79.4734 136.609 77.9235 136.067 76.8205 134.983C75.7175 133.899 75.166 132.416 75.166 130.533C75.166 129.221 75.4417 128.004 75.9932 126.882C76.5447 125.741 77.3054 124.838 78.2753 124.172C79.2642 123.506 80.3767 123.174 81.6128 123.174C82.7158 123.174 83.6001 123.506 84.2657 124.172C84.9313 124.819 85.2641 125.703 85.2641 126.825C85.2641 128.137 84.7887 129.269 83.8378 130.22C82.906 131.151 81.318 131.893 79.074 132.445C79.5494 133.319 80.4528 133.757 81.784 133.757C82.6397 133.757 83.6096 133.462 84.6936 132.872C85.7966 132.264 86.7474 131.475 87.5462 130.505C87.7744 130.239 88.0311 130.105 88.3163 130.105ZM81.1279 125.969C80.4242 125.969 79.8252 126.378 79.3307 127.196C78.8553 128.014 78.6176 129.002 78.6176 130.162V130.22C79.7396 129.953 80.6239 129.554 81.2705 129.021C81.9171 128.489 82.2404 127.871 82.2404 127.167C82.2404 126.806 82.1358 126.521 81.9266 126.312C81.7364 126.083 81.4702 125.969 81.1279 125.969ZM92.2409 136.609C90.3772 136.609 88.9224 136.086 87.8764 135.04C86.8495 133.975 86.336 132.578 86.336 130.847C86.336 129.307 86.6403 127.957 87.2489 126.796C87.8574 125.636 88.6466 124.743 89.6165 124.115C90.5864 123.487 91.6038 123.174 92.6687 123.174C93.7147 123.174 94.5229 123.487 95.0934 124.115C95.683 124.724 95.9777 125.513 95.9777 126.483C95.9777 127.281 95.7971 127.957 95.4357 128.508C95.0934 129.059 94.637 129.335 94.0665 129.335C93.7052 129.335 93.4104 129.25 93.1822 129.079C92.973 128.907 92.8684 128.67 92.8684 128.365C92.8684 128.232 92.8874 128.08 92.9255 127.909C92.9635 127.738 92.992 127.614 93.0111 127.538C93.1061 127.253 93.1537 126.987 93.1537 126.739C93.1537 126.492 93.0871 126.302 92.954 126.169C92.8399 126.036 92.6687 125.969 92.4405 125.969C92.0031 125.969 91.5943 126.169 91.2139 126.568C90.8336 126.949 90.5293 127.472 90.3011 128.137C90.0729 128.803 89.9588 129.535 89.9588 130.334C89.9588 132.54 90.9192 133.643 92.8399 133.643C93.6196 133.643 94.4564 133.386 95.3502 132.872C96.263 132.34 97.1568 131.551 98.0316 130.505C98.2598 130.239 98.5165 130.105 98.8018 130.105C99.049 130.105 99.2392 130.22 99.3723 130.448C99.5244 130.676 99.6005 130.99 99.6005 131.389C99.6005 132.112 99.4198 132.701 99.0585 133.158C98.1647 134.261 97.0902 135.116 95.8351 135.725C94.599 136.315 93.4009 136.609 92.2409 136.609ZM110.156 130.105C110.404 130.105 110.594 130.22 110.727 130.448C110.879 130.676 110.955 130.99 110.955 131.389C110.955 132.15 110.774 132.739 110.413 133.158C109.595 134.166 108.702 134.993 107.732 135.639C106.762 136.286 105.649 136.609 104.394 136.609C100.515 136.609 98.5749 133.88 98.5749 128.422C98.5749 127.586 98.6034 126.739 98.6605 125.884H97.548C96.9775 125.884 96.5876 125.779 96.3784 125.57C96.1883 125.361 96.0932 125.028 96.0932 124.571C96.0932 123.506 96.5211 122.974 97.3768 122.974H99.0028C99.3261 120.882 99.8205 118.971 100.486 117.24C101.152 115.51 101.95 114.131 102.882 113.104C103.833 112.077 104.851 111.564 105.935 111.564C106.733 111.564 107.361 111.916 107.817 112.619C108.274 113.323 108.502 114.207 108.502 115.272C108.502 118.22 107.266 120.787 104.794 122.974H107.988C108.293 122.974 108.511 123.041 108.644 123.174C108.778 123.307 108.844 123.554 108.844 123.915C108.844 125.228 107.77 125.884 105.621 125.884H102.141C102.103 126.834 102.084 127.576 102.084 128.109C102.084 130.086 102.312 131.475 102.768 132.273C103.244 133.072 103.985 133.471 104.993 133.471C105.811 133.471 106.534 133.224 107.161 132.73C107.789 132.235 108.53 131.494 109.386 130.505C109.614 130.239 109.871 130.105 110.156 130.105ZM105.164 114.302C104.879 114.302 104.556 114.664 104.194 115.386C103.852 116.09 103.519 117.079 103.196 118.353C102.892 119.608 102.635 121.006 102.426 122.546C103.548 121.576 104.385 120.492 104.936 119.294C105.507 118.077 105.792 116.974 105.792 115.985C105.792 114.863 105.583 114.302 105.164 114.302ZM112.369 121.291C111.571 121.291 110.972 121.11 110.572 120.749C110.173 120.369 109.973 119.846 109.973 119.18C109.973 118.514 110.23 117.963 110.743 117.526C111.276 117.069 111.932 116.841 112.712 116.841C113.415 116.841 113.986 117.012 114.423 117.354C114.861 117.697 115.079 118.182 115.079 118.809C115.079 119.57 114.832 120.178 114.338 120.635C113.843 121.072 113.187 121.291 112.369 121.291ZM112.141 136.609C110.905 136.609 110.002 136.172 109.431 135.297C108.88 134.422 108.604 133.262 108.604 131.817C108.604 130.961 108.709 129.868 108.918 128.537C109.146 127.186 109.431 125.931 109.773 124.771C109.945 124.163 110.173 123.744 110.458 123.516C110.743 123.288 111.2 123.174 111.827 123.174C112.797 123.174 113.282 123.497 113.282 124.144C113.282 124.619 113.101 125.722 112.74 127.453C112.284 129.544 112.056 130.961 112.056 131.703C112.056 132.273 112.132 132.711 112.284 133.015C112.436 133.319 112.693 133.471 113.054 133.471C113.396 133.471 113.824 133.234 114.338 132.758C114.851 132.283 115.536 131.532 116.391 130.505C116.62 130.239 116.876 130.105 117.162 130.105C117.409 130.105 117.599 130.22 117.732 130.448C117.884 130.676 117.96 130.99 117.96 131.389C117.96 132.15 117.78 132.739 117.418 133.158C115.536 135.459 113.777 136.609 112.141 136.609ZM130.201 127.709C130.448 127.709 130.638 127.833 130.771 128.08C130.904 128.327 130.971 128.641 130.971 129.021C130.971 129.934 130.695 130.476 130.144 130.647C129.002 131.047 127.747 131.275 126.378 131.332C126.017 132.929 125.304 134.213 124.239 135.183C123.174 136.134 121.966 136.609 120.616 136.609C119.475 136.609 118.496 136.334 117.678 135.782C116.879 135.231 116.271 134.498 115.852 133.586C115.434 132.673 115.225 131.684 115.225 130.619C115.225 129.174 115.5 127.89 116.052 126.768C116.603 125.627 117.364 124.743 118.334 124.115C119.304 123.468 120.378 123.145 121.557 123.145C123.003 123.145 124.163 123.649 125.037 124.657C125.931 125.646 126.454 126.873 126.606 128.337C127.5 128.28 128.565 128.09 129.801 127.766C129.953 127.728 130.086 127.709 130.201 127.709ZM120.844 133.586C121.453 133.586 121.976 133.338 122.413 132.844C122.869 132.349 123.174 131.636 123.326 130.704C122.736 130.305 122.28 129.782 121.957 129.136C121.652 128.489 121.5 127.804 121.5 127.082C121.5 126.777 121.529 126.473 121.586 126.169H121.443C120.682 126.169 120.045 126.54 119.532 127.281C119.037 128.004 118.79 129.031 118.79 130.362C118.79 131.408 118.99 132.207 119.389 132.758C119.808 133.31 120.293 133.586 120.844 133.586ZM130.548 136.609C129.825 136.609 129.312 136.229 129.007 135.468C128.722 134.708 128.579 133.49 128.579 131.817C128.579 129.345 128.931 126.996 129.635 124.771C129.806 124.22 130.082 123.82 130.462 123.573C130.862 123.307 131.413 123.174 132.117 123.174C132.497 123.174 132.763 123.221 132.915 123.316C133.068 123.411 133.144 123.592 133.144 123.858C133.144 124.163 133.001 124.847 132.716 125.912C132.526 126.673 132.373 127.338 132.259 127.909C132.145 128.479 132.05 129.183 131.974 130.02C132.602 128.384 133.305 127.053 134.085 126.026C134.865 124.999 135.625 124.267 136.367 123.83C137.128 123.392 137.822 123.174 138.449 123.174C139.686 123.174 140.304 123.792 140.304 125.028C140.304 125.77 140.094 127.11 139.676 129.05C139.315 130.704 139.134 131.798 139.134 132.33C139.134 133.091 139.41 133.471 139.961 133.471C140.342 133.471 140.789 133.243 141.302 132.787C141.834 132.311 142.538 131.551 143.413 130.505C143.641 130.239 143.898 130.105 144.183 130.105C144.43 130.105 144.62 130.22 144.754 130.448C144.906 130.676 144.982 130.99 144.982 131.389C144.982 132.15 144.801 132.739 144.44 133.158C143.622 134.166 142.738 134.993 141.787 135.639C140.855 136.286 139.79 136.609 138.592 136.609C137.622 136.609 136.89 136.334 136.396 135.782C135.901 135.212 135.654 134.394 135.654 133.329C135.654 132.796 135.787 131.846 136.053 130.476C136.3 129.278 136.424 128.451 136.424 127.995C136.424 127.69 136.319 127.538 136.11 127.538C135.863 127.538 135.511 127.861 135.055 128.508C134.617 129.136 134.161 129.972 133.686 131.018C133.229 132.064 132.858 133.167 132.573 134.327C132.364 135.221 132.117 135.83 131.831 136.153C131.565 136.457 131.137 136.609 130.548 136.609ZM147.98 137.237C146.991 137.237 146.23 137.009 145.698 136.552C145.184 136.096 144.927 135.582 144.927 135.012C144.927 134.517 145.108 134.09 145.469 133.728C145.831 133.367 146.363 133.186 147.067 133.186C147.314 133.186 147.599 133.215 147.923 133.272C148.265 133.31 148.522 133.338 148.693 133.357C148.674 132.863 148.56 132.397 148.35 131.96C148.16 131.522 147.913 131.104 147.609 130.704C147.305 130.286 147.019 129.925 146.753 129.621C146.164 130.743 145.574 131.674 144.984 132.416C144.414 133.158 143.786 133.861 143.102 134.527C142.759 134.869 142.398 135.04 142.018 135.04C141.714 135.04 141.466 134.936 141.276 134.727C141.086 134.498 140.991 134.223 140.991 133.899C140.991 133.519 141.124 133.167 141.39 132.844L141.761 132.387C142.807 131.094 143.596 130.029 144.129 129.193C144.471 128.641 144.813 127.985 145.156 127.224C145.517 126.464 145.983 125.427 146.553 124.115C146.915 123.278 147.666 122.86 148.807 122.86C149.339 122.86 149.71 122.907 149.919 123.003C150.129 123.098 150.233 123.25 150.233 123.459C150.233 123.573 150.195 123.754 150.119 124.001C150.043 124.248 149.938 124.495 149.805 124.743C149.463 125.427 149.292 126.007 149.292 126.483C149.292 126.768 149.387 127.082 149.577 127.424C149.786 127.766 150.1 128.194 150.518 128.708C151.127 129.506 151.583 130.191 151.888 130.762C152.211 131.313 152.373 131.922 152.373 132.587C152.373 133.386 152.182 134.147 151.802 134.869C151.441 135.573 150.927 136.143 150.262 136.581C149.596 137.018 148.835 137.237 147.98 137.237Z" fill="white"/>
</svg>
