<svg width="175" height="203" viewBox="0 0 175 203" fill="none" xmlns="http://www.w3.org/2000/svg">
<path d="M21 133H154V184.5C154 194.717 145.717 203 135.5 203H39.5C29.2827 203 21 194.717 21 184.5V133Z" fill="#8200A0"/>
<path d="M153 70L20 70L20 18.5C20 8.28272 28.2827 -1.09031e-05 38.5 -1.00099e-05L134.5 -1.61732e-06C144.717 -7.241e-07 153 8.28273 153 18.5L153 70Z" fill="#8200A0"/>
<rect y="14" width="175" height="175" rx="43" fill="#3C004A"/>
<path d="M66.9611 97.1646C66.1492 97.1646 65.5677 96.989 65.2167 96.6379C64.8656 96.2649 64.69 95.5737 64.69 94.5643C64.69 93.8841 64.7559 93.0174 64.8875 91.9641C65.0411 90.8889 65.2825 89.4187 65.6116 87.5536C66.1821 84.1086 66.632 81.1243 66.9611 78.6009C67.1586 77.021 67.2573 75.7045 67.2573 74.6512C67.2573 73.6638 66.8953 73.1701 66.1712 73.1701C65.6007 73.1701 64.9095 73.4663 64.0976 74.0587C63.3076 74.6293 62.4299 75.5509 61.4644 76.8235C61.1572 77.2405 60.8171 77.4489 60.4441 77.4489C60.1369 77.4489 59.8626 77.3063 59.6212 77.021C59.4018 76.7138 59.2921 76.3737 59.2921 76.0007C59.2921 75.6496 59.3579 75.2985 59.4896 74.9474C59.6432 74.5744 59.8845 74.1575 60.2137 73.6967C61.2669 72.2265 62.4409 71.0965 63.7355 70.3065C65.0301 69.4946 66.3248 69.0887 67.6194 69.0887C68.8263 69.0887 69.7479 69.4727 70.3842 70.2407C71.0425 71.0087 71.3716 72.1278 71.3716 73.5979C71.3716 74.1904 71.3168 74.8926 71.2071 75.7045C71.0973 76.4944 70.9986 77.1417 70.9108 77.6464C70.8231 78.1511 70.7572 78.5022 70.7133 78.6997C71.9641 75.123 73.3684 72.6325 74.9264 71.2281C76.4843 69.8018 78.1959 69.0887 80.061 69.0887C81.4873 69.0887 82.6064 69.5934 83.4183 70.6027C84.2521 71.6121 84.669 73.0384 84.669 74.8816C84.669 75.6057 84.5703 76.5054 84.3728 77.5806C85.4699 74.5525 86.7536 72.3801 88.2237 71.0635C89.6939 69.747 91.3835 69.0887 93.2925 69.0887C94.8285 69.0887 96.0025 69.5824 96.8144 70.5698C97.6482 71.5573 98.0651 72.9397 98.0651 74.717C98.0651 75.6825 97.9225 76.8565 97.6372 78.2389L95.6295 87.6523C95.41 88.7495 95.3003 89.693 95.3003 90.483C95.3003 91.4046 95.5088 92.0958 95.9257 92.5566C96.3645 93.0174 96.968 93.2478 97.736 93.2478C98.4601 93.2478 99.1623 93.0064 99.8425 92.5237C100.545 92.0409 101.368 91.24 102.311 90.1209C102.574 89.8137 102.871 89.6601 103.2 89.6601C103.485 89.6601 103.704 89.7918 103.858 90.0551C104.034 90.3184 104.121 90.6805 104.121 91.1413C104.121 91.997 103.913 92.6773 103.496 93.1819C102.355 94.5643 101.225 95.5737 100.106 96.2101C98.9867 96.8464 97.8128 97.1646 96.584 97.1646C94.7188 97.1646 93.2596 96.616 92.2064 95.5189C91.1531 94.3998 90.6265 92.9077 90.6265 91.0425C90.6265 89.7479 90.8898 87.8718 91.4164 85.4142L92.733 79.3909C92.7769 79.1934 92.8537 78.8423 92.9634 78.3376C93.0731 77.8329 93.1609 77.3611 93.2267 76.9223C93.2925 76.4615 93.3255 76.0117 93.3255 75.5728C93.3255 74.8048 93.1719 74.2343 92.8647 73.8613C92.5794 73.4663 92.1625 73.2688 91.6139 73.2688C90.5826 73.2688 89.4964 73.9381 88.3554 75.2766C87.2363 76.5931 86.1611 78.7874 85.1298 81.8594C84.1204 84.9314 83.2976 88.925 82.6612 93.8402C82.5076 95.1568 82.2333 96.0455 81.8384 96.5063C81.4653 96.9451 80.8509 97.1646 79.9952 97.1646C79.2491 97.1646 78.7005 96.989 78.3495 96.6379C78.0203 96.2869 77.8557 95.6286 77.8557 94.6631C77.8557 93.7634 77.9764 92.5895 78.2178 91.1413C78.4592 89.6711 78.7664 87.9486 79.1394 85.9737C80.1488 80.6635 80.6535 77.2405 80.6535 75.7045C80.6535 74.8706 80.4889 74.2562 80.1597 73.8613C79.8525 73.4663 79.3808 73.2688 78.7444 73.2688C77.6692 73.2688 76.5611 73.8832 75.4201 75.112C74.2791 76.3189 73.16 78.4802 72.0628 81.5961C70.9876 84.6901 70.088 88.8811 69.3639 94.1694C69.2103 95.2885 68.9799 96.0674 68.6727 96.5063C68.3874 96.9451 67.8169 97.1646 66.9611 97.1646ZM112.989 81.6619C113.494 81.6619 113.845 81.7278 114.042 81.8594C114.24 81.9911 114.339 82.2105 114.339 82.5177C114.339 83.0443 114.053 84.9205 113.483 88.1461C112.978 91.24 112.682 93.0722 112.594 93.6427C111.782 99.2821 110.663 103.747 109.237 107.039C107.811 110.33 105.913 111.976 103.543 111.976C102.424 111.976 101.513 111.625 100.811 110.923C100.109 110.243 99.7576 109.343 99.7576 108.224C99.7576 107.192 99.988 106.139 100.449 105.064C100.932 103.989 101.809 102.749 103.082 101.345C104.377 99.9623 106.198 98.3714 108.546 96.5721L108.644 95.8151C108.798 95.0032 108.974 93.8402 109.171 92.3262C108.732 93.9061 108.118 95.1129 107.328 95.9467C106.538 96.7586 105.704 97.1646 104.826 97.1646C103.839 97.1646 103.027 96.7147 102.391 95.8151C101.776 94.8935 101.469 93.7525 101.469 92.392C101.469 90.7463 101.579 89.2432 101.798 87.8827C102.018 86.5003 102.38 85.0411 102.884 83.5051C103.104 82.8469 103.411 82.3751 103.806 82.0898C104.201 81.8046 104.826 81.6619 105.682 81.6619C106.165 81.6619 106.494 81.7387 106.67 81.8923C106.867 82.0459 106.966 82.2763 106.966 82.5835C106.966 82.7591 106.845 83.3515 106.604 84.3609C106.384 85.1728 106.209 85.9079 106.077 86.5662C105.902 87.4658 105.748 88.3326 105.616 89.1664C105.485 89.9783 105.419 90.6475 105.419 91.1742C105.419 92.008 105.649 92.4249 106.11 92.4249C106.439 92.4249 106.845 92.0958 107.328 91.4375C107.833 90.7792 108.359 89.7808 108.908 88.4423C109.478 87.1038 110.027 85.4581 110.554 83.5051C110.729 82.8469 110.992 82.3751 111.343 82.0898C111.716 81.8046 112.265 81.6619 112.989 81.6619ZM103.905 108.783C104.453 108.783 105.068 108.147 105.748 106.874C106.428 105.602 107.108 103.484 107.789 100.522C106.099 101.948 104.87 103.243 104.102 104.406C103.356 105.591 102.983 106.622 102.983 107.5C102.983 107.873 103.049 108.18 103.181 108.421C103.334 108.663 103.576 108.783 103.905 108.783ZM60.1367 122.383C60.1367 124.248 59.6539 125.96 58.6884 127.518C57.723 129.076 56.3186 130.348 54.4754 131.336C52.6322 132.323 50.4379 132.905 47.8926 133.08L46.4772 141.013C45.9287 144.063 44.4366 145.588 42.0009 145.588C40.6624 145.588 39.4226 145.193 38.2816 144.403C37.1625 143.613 36.2628 142.406 35.5826 140.782C34.9024 139.158 34.5623 137.162 34.5623 134.792C34.5623 130.337 35.2754 126.563 36.7017 123.469C38.1499 120.353 40.0809 118.027 42.4946 116.491C44.9303 114.933 47.6073 114.155 50.5257 114.155C52.5883 114.155 54.3328 114.517 55.7591 115.241C57.2073 115.965 58.2935 116.952 59.0176 118.203C59.7636 119.432 60.1367 120.825 60.1367 122.383ZM48.485 129.69C52.9833 129.12 55.2324 126.783 55.2324 122.679C55.2324 121.231 54.7497 120.057 53.7842 119.157C52.8407 118.236 51.3705 117.775 49.3737 117.775C47.1136 117.775 45.1387 118.488 43.4491 119.915C41.7815 121.341 40.4868 123.327 39.5652 125.872C38.6656 128.395 38.2158 131.281 38.2158 134.528C38.2158 135.889 38.3474 137.096 38.6107 138.149C38.896 139.202 39.2471 140.025 39.664 140.618C40.1028 141.188 40.5198 141.473 40.9147 141.473C41.4633 141.473 41.8802 140.716 42.1655 139.202L43.2516 132.981C42.3959 132.85 42.0228 132.795 42.1326 132.817C41.4743 132.707 41.0464 132.51 40.8489 132.224C40.6514 131.917 40.5527 131.533 40.5527 131.072C40.5527 130.59 40.6843 130.206 40.9476 129.92C41.2329 129.635 41.6169 129.493 42.0996 129.493C42.3191 129.493 42.4836 129.504 42.5934 129.525C43.12 129.613 43.5259 129.668 43.8112 129.69C44.0964 127.979 44.5024 125.685 45.029 122.811C45.1607 122.065 45.4569 121.538 45.9177 121.231C46.4004 120.902 46.96 120.737 47.5963 120.737C48.3204 120.737 48.8361 120.88 49.1433 121.165C49.4724 121.429 49.637 121.856 49.637 122.449C49.637 122.8 49.6151 123.085 49.5712 123.305L48.485 129.69ZM65.037 142.165C63.7424 142.165 62.6343 141.846 61.7127 141.21C60.813 140.552 60.1328 139.696 59.672 138.643C59.2112 137.589 58.9808 136.459 58.9808 135.253C58.9808 133.585 59.288 132.104 59.9024 130.809C60.5388 129.493 61.3945 128.472 62.4697 127.748C63.5449 127.002 64.7518 126.629 66.0903 126.629C67.3849 126.629 68.493 126.958 69.4146 127.616C70.3362 128.253 71.0274 129.098 71.4882 130.151C71.949 131.204 72.1794 132.334 72.1794 133.541C72.1794 135.209 71.8613 136.701 71.2249 138.017C70.5886 139.312 69.7218 140.332 68.6247 141.078C67.5495 141.803 66.3536 142.165 65.037 142.165ZM65.3991 138.61C66.1452 138.61 66.7705 138.204 67.2752 137.392C67.8018 136.58 68.0652 135.395 68.0652 133.837C68.0652 132.63 67.8457 131.72 67.4069 131.105C66.968 130.491 66.4414 130.184 65.827 130.184C65.037 130.184 64.3788 130.59 63.8521 131.402C63.3474 132.192 63.0951 133.376 63.0951 134.956C63.0951 136.207 63.3145 137.129 63.7534 137.721C64.1922 138.314 64.7408 138.61 65.3991 138.61ZM80.3502 142.889C79.2091 142.889 78.3314 142.625 77.717 142.099C77.1246 141.572 76.8283 140.98 76.8283 140.321C76.8283 139.751 77.0368 139.257 77.4537 138.84C77.8706 138.423 78.485 138.215 79.2969 138.215C79.5822 138.215 79.9113 138.248 80.2843 138.314C80.6793 138.357 80.9755 138.39 81.173 138.412C81.1511 137.842 81.0194 137.304 80.778 136.8C80.5586 136.295 80.2734 135.812 79.9223 135.351C79.5712 134.869 79.242 134.452 78.9348 134.101C78.2546 135.395 77.5744 136.47 76.8942 137.326C76.2359 138.182 75.5118 138.994 74.7218 139.762C74.3268 140.157 73.9099 140.354 73.4711 140.354C73.12 140.354 72.8347 140.234 72.6153 139.992C72.3959 139.729 72.2862 139.411 72.2862 139.038C72.2862 138.599 72.4398 138.193 72.747 137.82L73.1748 137.293C74.3817 135.801 75.2923 134.572 75.9067 133.607C76.2798 132.971 76.7186 132.126 77.2233 131.072C77.728 129.997 78.2217 128.889 78.7044 127.748C79.1214 126.783 79.9881 126.3 81.3047 126.3C81.9191 126.3 82.347 126.355 82.5883 126.464C82.8297 126.574 82.9504 126.75 82.9504 126.991C82.9504 127.123 82.9065 127.331 82.8187 127.616C82.731 127.902 82.6103 128.187 82.4567 128.472C82.0617 129.262 81.8642 129.931 81.8642 130.48C81.8642 130.809 81.9739 131.171 82.1934 131.566C82.4347 131.961 82.7968 132.455 83.2795 133.047C83.9817 133.969 84.5083 134.759 84.8594 135.417C85.2324 136.053 85.419 136.756 85.419 137.524C85.419 137.743 85.397 138.05 85.3531 138.445C86.4283 138.028 87.69 136.92 89.1383 135.121C89.4016 134.814 89.6978 134.66 90.027 134.66C90.3122 134.66 90.5316 134.792 90.6852 135.055C90.8608 135.318 90.9486 135.68 90.9486 136.141C90.9486 136.975 90.7401 137.655 90.3232 138.182C89.226 139.542 88.1728 140.475 87.1634 140.98C86.176 141.462 84.9472 141.726 83.477 141.77C82.5993 142.516 81.557 142.889 80.3502 142.889ZM102.954 134.66C103.24 134.66 103.459 134.792 103.613 135.055C103.788 135.318 103.876 135.68 103.876 136.141C103.876 137.019 103.667 137.699 103.251 138.182C102.307 139.345 101.276 140.299 100.157 141.045C99.0375 141.792 97.7538 142.165 96.3056 142.165C91.8293 142.165 89.5911 139.016 89.5911 132.718C89.5911 131.753 89.624 130.776 89.6898 129.789H88.4062C87.7479 129.789 87.2981 129.668 87.0567 129.427C86.8373 129.185 86.7276 128.801 86.7276 128.275C86.7276 127.046 87.2213 126.432 88.2087 126.432H90.0848C90.4578 124.018 91.0284 121.813 91.7964 119.816C92.5644 117.819 93.486 116.228 94.5612 115.043C95.6583 113.858 96.8322 113.266 98.083 113.266C99.0046 113.266 99.7287 113.672 100.255 114.484C100.782 115.296 101.045 116.316 101.045 117.545C101.045 120.946 99.619 123.908 96.7664 126.432H100.453C100.804 126.432 101.056 126.508 101.21 126.662C101.363 126.816 101.44 127.101 101.44 127.518C101.44 129.032 100.2 129.789 97.7209 129.789H93.7054C93.6615 130.886 93.6396 131.742 93.6396 132.356C93.6396 134.638 93.9029 136.24 94.4295 137.162C94.9781 138.083 95.8338 138.544 96.9968 138.544C97.9404 138.544 98.7742 138.259 99.4983 137.688C100.222 137.118 101.078 136.262 102.066 135.121C102.329 134.814 102.625 134.66 102.954 134.66ZM97.1943 116.426C96.8652 116.426 96.4921 116.843 96.0752 117.676C95.6802 118.488 95.2962 119.629 94.9232 121.099C94.5721 122.548 94.2759 124.16 94.0345 125.938C95.3292 124.819 96.2946 123.568 96.931 122.186C97.5893 120.781 97.9184 119.509 97.9184 118.368C97.9184 117.073 97.677 116.426 97.1943 116.426ZM115.876 134.66C116.161 134.66 116.38 134.792 116.534 135.055C116.71 135.318 116.797 135.68 116.797 136.141C116.797 137.019 116.589 137.699 116.172 138.182C115.36 139.169 114.208 140.08 112.716 140.914C111.246 141.748 109.666 142.165 107.976 142.165C105.672 142.165 103.884 141.539 102.611 140.288C101.339 139.038 100.702 137.326 100.702 135.154C100.702 133.64 101.02 132.235 101.657 130.941C102.293 129.624 103.171 128.582 104.29 127.814C105.431 127.046 106.715 126.662 108.141 126.662C109.414 126.662 110.434 127.046 111.202 127.814C111.97 128.56 112.354 129.58 112.354 130.875C112.354 132.389 111.805 133.695 110.708 134.792C109.633 135.867 107.801 136.723 105.212 137.359C105.76 138.368 106.802 138.873 108.338 138.873C109.326 138.873 110.445 138.533 111.696 137.853C112.968 137.151 114.065 136.24 114.987 135.121C115.25 134.814 115.547 134.66 115.876 134.66ZM107.581 129.888C106.769 129.888 106.078 130.359 105.508 131.303C104.959 132.246 104.685 133.387 104.685 134.726V134.792C105.98 134.485 107 134.024 107.746 133.409C108.492 132.795 108.865 132.082 108.865 131.27C108.865 130.853 108.744 130.524 108.503 130.283C108.284 130.019 107.976 129.888 107.581 129.888ZM127.415 131.171C127.897 131.171 128.303 131.347 128.633 131.698C128.984 132.027 129.159 132.444 129.159 132.949C129.159 133.234 129.093 133.541 128.962 133.87C128.611 134.682 128.117 135.362 127.481 135.911C126.844 136.459 126.142 136.734 125.374 136.734C124.76 136.734 124.233 136.514 123.794 136.075C123.377 135.637 123.169 135.044 123.169 134.298C123.169 133.881 123.191 133.431 123.235 132.949C123.279 132.597 123.3 132.356 123.3 132.224C123.3 132.049 123.257 131.917 123.169 131.829C123.103 131.742 123.015 131.698 122.905 131.698C122.598 131.698 122.181 132.071 121.655 132.817C121.128 133.541 120.601 134.507 120.075 135.713C119.548 136.92 119.12 138.193 118.791 139.531C118.55 140.585 118.276 141.287 117.968 141.638C117.661 141.989 117.156 142.165 116.454 142.165C115.62 142.165 115.028 141.726 114.677 140.848C114.348 139.97 114.183 138.566 114.183 136.635C114.183 133.782 114.589 131.072 115.401 128.505C115.599 127.869 115.917 127.408 116.356 127.123C116.816 126.816 117.453 126.662 118.265 126.662C118.703 126.662 119.011 126.717 119.186 126.827C119.362 126.936 119.449 127.145 119.449 127.452C119.449 127.803 119.285 128.593 118.956 129.822C118.736 130.699 118.561 131.467 118.429 132.126C118.297 132.784 118.188 133.596 118.1 134.561C118.824 132.674 119.636 131.138 120.536 129.953C121.435 128.768 122.313 127.924 123.169 127.419C124.025 126.914 124.804 126.662 125.506 126.662C126.142 126.662 126.625 126.848 126.954 127.221C127.305 127.573 127.481 128.099 127.481 128.801C127.481 129.218 127.36 130.008 127.119 131.171H127.415ZM135.7 142.889C134.559 142.889 133.681 142.625 133.067 142.099C132.475 141.572 132.178 140.98 132.178 140.321C132.178 139.751 132.387 139.257 132.804 138.84C133.221 138.423 133.835 138.215 134.647 138.215C134.932 138.215 135.261 138.248 135.634 138.314C136.029 138.357 136.326 138.39 136.523 138.412C136.501 137.842 136.369 137.304 136.128 136.8C135.909 136.295 135.623 135.812 135.272 135.351C134.921 134.869 134.592 134.452 134.285 134.101C133.605 135.395 132.924 136.47 132.244 137.326C131.586 138.182 130.862 138.994 130.072 139.762C129.677 140.157 129.26 140.354 128.821 140.354C128.47 140.354 128.185 140.234 127.965 139.992C127.746 139.729 127.636 139.411 127.636 139.038C127.636 138.599 127.79 138.193 128.097 137.82L128.525 137.293C129.732 135.801 130.642 134.572 131.257 133.607C131.652 132.971 132.047 132.213 132.442 131.336C132.859 130.458 133.396 129.262 134.054 127.748C134.471 126.783 135.338 126.3 136.655 126.3C137.269 126.3 137.697 126.355 137.938 126.464C138.18 126.574 138.3 126.75 138.3 126.991C138.3 127.123 138.257 127.331 138.169 127.616C138.081 127.902 137.96 128.187 137.807 128.472C137.412 129.262 137.214 129.931 137.214 130.48C137.214 130.809 137.324 131.171 137.543 131.566C137.785 131.961 138.147 132.455 138.63 133.047C139.332 133.969 139.858 134.759 140.209 135.417C140.582 136.053 140.769 136.756 140.769 137.524C140.769 138.445 140.55 139.323 140.111 140.157C139.694 140.969 139.101 141.627 138.333 142.132C137.565 142.636 136.688 142.889 135.7 142.889Z" fill="white"/>
</svg>
