<svg width="175" height="203" viewBox="0 0 175 203" fill="none" xmlns="http://www.w3.org/2000/svg">
<path d="M21 133H154V184.5C154 194.717 145.717 203 135.5 203H39.5C29.2827 203 21 194.717 21 184.5V133Z" fill="#00A06F"/>
<path d="M153 70L20 70L20 18.5C20 8.28273 28.2827 4.35566e-06 38.5 5.24888e-06L134.5 1.36415e-05C144.717 1.45347e-05 153 8.28275 153 18.5L153 70Z" fill="#00A06F"/>
<rect y="14" width="175" height="175" rx="43" fill="#005138"/>
<path d="M71.0522 99.781C71.5569 99.781 71.919 99.8907 72.1384 100.11C72.3798 100.33 72.5005 100.615 72.5005 100.966C72.5005 101.536 72.3249 102.041 71.9738 102.48C71.6447 102.919 71.1181 103.149 70.3939 103.171C68.6385 103.215 67.0806 103.083 65.7201 102.776C64.1622 106.046 62.2751 108.767 60.0589 110.939C57.8646 113.089 55.6593 114.165 53.4431 114.165C51.161 114.165 49.4605 112.837 48.3414 110.182C47.2223 107.527 46.6627 103.939 46.6627 99.419C46.6627 95.557 46.937 92.0901 47.4856 89.0181C47.6831 87.877 47.9574 87.109 48.3085 86.7141C48.6815 86.2971 49.3069 86.0887 50.1846 86.0887C51.6328 86.0887 52.3569 86.7141 52.3569 87.9648C52.3569 88.0965 52.335 88.3378 52.2911 88.6889C51.6328 92.6386 51.3037 96.2153 51.3037 99.419C51.3037 102.776 51.5779 105.333 52.1265 107.088C52.697 108.821 53.5418 109.688 54.6609 109.688C55.8019 109.688 57.0417 108.898 58.3802 107.318C59.7187 105.739 60.9475 103.753 62.0666 101.361C60.7281 100.527 59.7187 99.4519 59.0385 98.1353C58.3583 96.7968 58.0182 95.2608 58.0182 93.5273C58.0182 91.7938 58.2815 90.3346 58.8081 89.1497C59.3567 87.9429 60.0918 87.0432 61.0134 86.4507C61.9569 85.8583 62.9992 85.5621 64.1402 85.5621C65.5446 85.5621 66.6527 86.0667 67.4646 87.0761C68.2984 88.0855 68.7153 89.4679 68.7153 91.2233C68.7153 93.7467 68.1667 96.5006 67.0696 99.4848C68.2326 99.6823 69.5601 99.781 71.0522 99.781ZM61.3425 93.2969C61.3425 95.4473 62.0337 97.0382 63.4161 98.0695C64.2719 95.6119 64.6998 93.5822 64.6998 91.9803C64.6998 91.0587 64.5791 90.3895 64.3377 89.9726C64.0963 89.5337 63.7672 89.3143 63.3503 89.3143C62.7578 89.3143 62.2751 89.6654 61.9021 90.3675C61.529 91.0478 61.3425 92.0242 61.3425 93.2969ZM73.6095 96.4896C72.6879 96.4896 71.9967 96.2811 71.5359 95.8642C71.0751 95.4254 70.8447 94.8219 70.8447 94.0539C70.8447 93.2859 71.1409 92.6496 71.7334 92.1449C72.3478 91.6183 73.1048 91.355 74.0045 91.355C74.8164 91.355 75.4747 91.5525 75.9793 91.9474C76.484 92.3424 76.7364 92.9019 76.7364 93.6261C76.7364 94.5038 76.4511 95.2059 75.8806 95.7326C75.3101 96.2373 74.5531 96.4896 73.6095 96.4896ZM73.3462 114.165C71.9199 114.165 70.8776 113.66 70.2193 112.651C69.583 111.641 69.2648 110.303 69.2648 108.635C69.2648 107.648 69.3855 106.386 69.6269 104.85C69.8902 103.292 70.2193 101.844 70.6143 100.505C70.8118 99.803 71.0751 99.3202 71.4043 99.0569C71.7334 98.7936 72.26 98.6619 72.9841 98.6619C74.1032 98.6619 74.6628 99.035 74.6628 99.781C74.6628 100.33 74.4543 101.602 74.0374 103.599C73.5108 106.013 73.2475 107.648 73.2475 108.503C73.2475 109.162 73.3352 109.666 73.5108 110.017C73.6863 110.368 73.9825 110.544 74.3995 110.544C74.7944 110.544 75.2881 110.27 75.8806 109.721C76.4731 109.173 77.263 108.306 78.2504 107.121C78.5137 106.814 78.81 106.66 79.1391 106.66C79.4244 106.66 79.6438 106.792 79.7974 107.055C79.9729 107.318 80.0607 107.68 80.0607 108.141C80.0607 109.019 79.8523 109.699 79.4353 110.182C77.263 112.837 75.2333 114.165 73.3462 114.165ZM96.0931 106.66C96.3783 106.66 96.5977 106.792 96.7513 107.055C96.9269 107.318 97.0147 107.68 97.0147 108.141C97.0147 109.019 96.8062 109.699 96.3893 110.182C95.4896 111.279 94.5022 112.223 93.427 113.013C92.3518 113.781 91.2876 114.165 90.2343 114.165C88.5667 114.165 87.294 113.188 86.4163 111.235C85.4947 112.398 84.6828 113.177 83.9806 113.572C83.3004 113.967 82.4995 114.165 81.5779 114.165C80.2393 114.165 79.1312 113.671 78.2535 112.683C77.3977 111.674 76.9699 110.368 76.9699 108.767C76.9699 107.011 77.3429 105.387 78.0889 103.895C78.835 102.381 79.8553 101.152 81.15 100.209C82.4665 99.2434 83.9367 98.6729 85.5605 98.4974C85.9774 94.2405 86.7673 90.6089 87.9303 87.6027C89.1152 84.5746 90.6622 83.0606 92.5712 83.0606C93.5148 83.0606 94.2937 83.4885 94.9081 84.3442C95.5445 85.2 95.8627 86.4946 95.8627 88.2281C95.8627 90.6857 95.2592 93.5602 94.0524 96.8517C92.8455 100.143 91.2327 103.522 89.214 106.989C89.3017 108.262 89.4883 109.173 89.7735 109.721C90.0807 110.27 90.4647 110.544 90.9255 110.544C91.518 110.544 92.1214 110.281 92.7358 109.754C93.3502 109.227 94.1731 108.35 95.2044 107.121C95.4677 106.814 95.7639 106.66 96.0931 106.66ZM92.2092 86.2862C91.7923 86.2862 91.3753 87.0322 90.9584 88.5243C90.5415 89.9945 90.1795 91.9255 89.8723 94.3173C89.587 96.709 89.3785 99.2105 89.2469 101.822C91.7045 96.4677 92.9333 92.1669 92.9333 88.9193C92.9333 88.0855 92.8565 87.4382 92.7029 86.9774C92.5712 86.5166 92.4067 86.2862 92.2092 86.2862ZM82.7299 110.84C83.1468 110.84 83.5637 110.676 83.9806 110.347C84.3975 109.995 84.9241 109.359 85.5605 108.437C85.3411 107.253 85.2313 105.925 85.2313 104.455C85.2313 103.928 85.2533 103.072 85.2972 101.888C84.0903 102.261 83.0809 103.072 82.2691 104.323C81.4791 105.552 81.0841 106.923 81.0841 108.437C81.0841 110.039 81.6327 110.84 82.7299 110.84ZM109.017 106.66C109.302 106.66 109.521 106.792 109.675 107.055C109.851 107.318 109.938 107.68 109.938 108.141C109.938 109.019 109.73 109.699 109.313 110.182C108.501 111.169 107.349 112.08 105.857 112.914C104.387 113.748 102.807 114.165 101.117 114.165C98.8134 114.165 97.025 113.539 95.7523 112.288C94.4797 111.038 93.8433 109.326 93.8433 107.154C93.8433 105.64 94.1615 104.235 94.7978 102.941C95.4342 101.624 96.3119 100.582 97.431 99.8139C98.572 99.0459 99.8557 98.6619 101.282 98.6619C102.555 98.6619 103.575 99.0459 104.343 99.8139C105.111 100.56 105.495 101.58 105.495 102.875C105.495 104.389 104.946 105.695 103.849 106.792C102.774 107.867 100.942 108.723 98.3526 109.359C98.9011 110.368 99.9434 110.873 101.479 110.873C102.467 110.873 103.586 110.533 104.837 109.853C106.109 109.151 107.207 108.24 108.128 107.121C108.391 106.814 108.688 106.66 109.017 106.66ZM100.722 101.888C99.9105 101.888 99.2193 102.359 98.6488 103.303C98.1002 104.246 97.8259 105.387 97.8259 106.726V106.792C99.1206 106.485 100.141 106.024 100.887 105.409C101.633 104.795 102.006 104.082 102.006 103.27C102.006 102.853 101.885 102.524 101.644 102.283C101.425 102.019 101.117 101.888 100.722 101.888ZM112.821 114.165C111.526 114.165 110.418 113.846 109.497 113.21C108.597 112.552 107.917 111.696 107.456 110.643C106.995 109.589 106.765 108.459 106.765 107.253C106.765 105.585 107.072 104.104 107.686 102.809C108.323 101.493 109.178 100.472 110.254 99.7481C111.329 99.0021 112.536 98.629 113.874 98.629C115.169 98.629 116.277 98.9582 117.199 99.6165C118.12 100.253 118.811 101.098 119.272 102.151C119.733 103.204 119.963 104.334 119.963 105.541C119.963 107.209 119.645 108.701 119.009 110.017C118.373 111.312 117.506 112.332 116.409 113.078C115.333 113.803 114.138 114.165 112.821 114.165ZM113.183 110.61C113.929 110.61 114.554 110.204 115.059 109.392C115.586 108.58 115.849 107.395 115.849 105.837C115.849 104.63 115.63 103.72 115.191 103.105C114.752 102.491 114.225 102.184 113.611 102.184C112.821 102.184 112.163 102.59 111.636 103.402C111.131 104.192 110.879 105.376 110.879 106.956C110.879 108.207 111.098 109.129 111.537 109.721C111.976 110.314 112.525 110.61 113.183 110.61ZM128.134 114.889C126.993 114.889 126.115 114.625 125.501 114.099C124.908 113.572 124.612 112.98 124.612 112.321C124.612 111.751 124.821 111.257 125.238 110.84C125.655 110.423 126.269 110.215 127.081 110.215C127.366 110.215 127.695 110.248 128.068 110.314C128.463 110.357 128.759 110.39 128.957 110.412C128.935 109.842 128.803 109.304 128.562 108.8C128.343 108.295 128.057 107.812 127.706 107.351C127.355 106.869 127.026 106.452 126.719 106.101C126.039 107.395 125.358 108.47 124.678 109.326C124.02 110.182 123.296 110.994 122.506 111.762C122.111 112.157 121.694 112.354 121.255 112.354C120.904 112.354 120.619 112.234 120.399 111.992C120.18 111.729 120.07 111.411 120.07 111.038C120.07 110.599 120.224 110.193 120.531 109.82L120.959 109.293C122.166 107.801 123.076 106.572 123.691 105.607C124.086 104.971 124.481 104.213 124.876 103.336C125.292 102.458 125.83 101.262 126.488 99.7481C126.905 98.7826 127.772 98.2999 129.089 98.2999C129.703 98.2999 130.131 98.3547 130.372 98.4645C130.614 98.5742 130.734 98.7497 130.734 98.9911C130.734 99.1227 130.69 99.3312 130.603 99.6165C130.515 99.9017 130.394 100.187 130.241 100.472C129.846 101.262 129.648 101.931 129.648 102.48C129.648 102.809 129.758 103.171 129.977 103.566C130.219 103.961 130.581 104.455 131.063 105.047C131.766 105.969 132.292 106.759 132.643 107.417C133.016 108.053 133.203 108.756 133.203 109.524C133.203 110.445 132.983 111.323 132.545 112.157C132.128 112.969 131.535 113.627 130.767 114.132C129.999 114.636 129.122 114.889 128.134 114.889Z" fill="white"/>
</svg>
